<svg xmlns="http://www.w3.org/2000/svg" viewBox="0 0 1080.2 1080.25"><defs><style>.a{fill:#fefefe;}.b{fill:#3e1a14;}.c{fill:#7c1808;}.d{fill:#9e1504;}.e{fill:#cab47d;}</style></defs><title>arlequine1</title><path class="a" d="M400,540.49Q400,273,399.91,5.55c0-3.66.68-4.65,4.54-4.65q535.44.16,1070.88,0c4.21,0,4.77,1,4.77,5q-.16,535.19,0,1070.37c0,4-.64,4.92-4.8,4.92q-535.18-.19-1070.38,0c-4.44,0-5-1.18-5-5.21Q400.08,808.2,400,540.49Zm363.86,63.93a2.77,2.77,0,0,0,1.72,2.63c1.19,3.51,5,2.51,7.25,4.25.38,3.9-.69,7.64,0,11.76a53,53,0,0,0,9.77,23,15,15,0,0,1,3.18,8.31c.07,8.55,7.29,13.12,10.59,19.84.45.9,1.72,2,2.92,1.26s.78-2.16.52-3.21c-1.25-5.15-2.62-10.28-4-15.41-2.56-9.55-5.65-19-4.94-29.14.1-1.54-.68-3.73,1.91-3.74,2.16,0,2.7,1.9,2.5,3.61-.79,6.86,2.24,13,3.36,19.53.32,1.85.18,4.36,3.27,3.93,3.56-.49,2-3.26,2-5.11,0-2.69-2.09-5.37.14-8,1.43,0,2,.77,2.22,2.11.44,3.11,1.23,6.21,1.38,9.34,1,22.48,1.71,45,3.63,67.41q0,12.06,0,24.13c-1,8.41-1.32,16.81.4,25.18-.59,6.63-.92,13.4.53,19.83,2,8.93,1.16,17.85,1.4,26.77.18,6.48-.12,13,.06,19.44C814,845,817.4,857.36,819.17,870a3.76,3.76,0,0,0,.52,3,98.07,98.07,0,0,0,4.2,25,450.67,450.67,0,0,1,12.16,50.78c1,5.49,2,11.7-1.65,16.48-7.89,10.4-10.36,23.19-16,34.58-8.88,17.93-14,37.57-24.26,55-1,1.64-2.24,3.31-2.27,6.51A239.74,239.74,0,0,0,822,1050.19a42.25,42.25,0,0,0,19.07-14.41,92.29,92.29,0,0,0,11.95-21c2.38-5.87,6.05-11.65,5.39-18.34-.5-5.15-.18-10.24-.24-15.36.62-2,.11-3.95.17-5.92.21-7.63-1.09-15.35-.36-22.83a190.19,190.19,0,0,0,1.26-26.24c-.48-12.28.09-24.71-3.55-36.59-2.67-8.71-2.44-17.49-2.19-26.29.43-15.43,0-30.88,1.24-46.28a31.6,31.6,0,0,0,.9-5.88c-.61-17.64,1.18-35.22,1-52.85-.16-14.11-.82-28.33,2.6-42.19,2-8.14,3.87-16.26,2.37-24.6a98.15,98.15,0,0,1-1.94-19.26c.06-3.29.22-6.1,4.46-6.26,4.47-.18,7.6,2,7.63,6,0,4.46.33,8.9-.75,13.39-2.26,9.33-2.42,18.63.68,28a55.75,55.75,0,0,1,2.71,15.65c.77,26.08,1.19,52.17,1.73,78.26.06,3-.33,6,.88,8.87.3,3.29.78,6.59.88,9.89.26,9,.13,18,.48,27,.38,9.6,1.65,19.48-.9,28.85-7.56,27.81-4.6,56-4.07,84.16a3.2,3.2,0,0,0,.22,3.1c-.18,2-.35,4-.53,6.08-1.2,7.89,1.41,15.8-.05,23.71a5.94,5.94,0,0,0,.56,2.9c5,13.19,10.62,26.05,20.25,36.59,8.58,9.39,19.86,14,32.08,16.59,6,2.5,11.75,6.05,19.12,5.68-4.16-8.91-9.79-16.54-13.44-25.21-5-12-10.4-23.94-15.42-36-1.8-4.33-5.79-7.61-6.48-12.28a34.41,34.41,0,0,0-7.62-16.6c-5.91-7.36-6-15.4-4.58-24.1,3.31-20.93,11.14-40.71,15.08-61.54,2.51-13.27,4.09-26.71,7.19-39.88a75.15,75.15,0,0,0,1.49-15.37c.38-15.1-.61-30.16,1.46-45.31,2.45-17.94,2.16-36.16,1-54.29-.6-9.66,1.23-19.23,1-28.88,3-12.48,1.59-25.29,2.91-37.9a2,2,0,0,0-.87-2.14l.28-6.09a1.08,1.08,0,0,0,0-1.89q1-7.35,2-14.7l1.78-.53c3.53,2.9.5,6,.19,9-.19,1.92-.71,3.76,1.89,4.26,2.32.44,3.76-.24,4.11-2.91.9-6.85,4.71-13.15,3.67-20.39-.27-1.9.44-4,2.84-3.81,2.67.18,2.08,2.3,2,4.18-.47,10.48-2.84,20.57-5.9,30.55q-2,6.42-3.56,12.94c-.31,1.3-1,3.3.71,3.94,1.46.55,2.75-.87,3.62-2.1,1.44-2,2.39-4.58,4.22-6.1,3.59-3,5.2-6.86,5.93-11.11a31.35,31.35,0,0,1,6.3-13.88,37.78,37.78,0,0,0,7.32-16.05,67,67,0,0,0,.86-15.11c2.52-2,7.07-.72,8-5.12a1.81,1.81,0,0,0,1.79-2l1.41-2c2.74-.67,3.54-3.94,3-5-2.55-4.78-1.33-11.13-5.84-14.85a10.6,10.6,0,0,1-4-8.56l.9-5.53c4.87-9.55,5.56-20,7-30.4,1.74-12.89,2.76-25.93,1.32-38.75-1.54-13.72-.33-27.88-6.28-41.12-3.33-7.42-2.3-16-3.87-24-4-20.36-9.35-40.57-7.83-61.64a3.2,3.2,0,0,0-.26-1,28,28,0,0,0-.51-10.35c0-3.39,1.65-4.63,5.05-4.23,5.45.64,5.81.25,4.84-5.12a18.59,18.59,0,0,0-2.16-5.49c-7-12.73-14.14-25.43-21.23-38.13-.44-1-.88-2-1.33-3a164,164,0,0,0-16.42-21.73c-3.3-3.8-10.31-5.09-10.24-10.49.06-4.79,3.41-9.54,5.32-14.3.24-.61.66-1.16.84-1.79,1.47-5.11,4.81-9.52,5.58-14.9a.76.76,0,0,1,.52-.55c2.29,1,2.78-.4,3-2.2l3.13-2.42c1.35.39,2-.07,1.93-1.52l2-1.67c1.3.5,2,.15,2-1.34l3-1.66c1.3.52,2.07.22,2.07-1.3l1-.63c1.33.55,2,.14,2-1.34,2.83-1.75,5.63-3.57,8.5-5.24,12.09-7,23.07-15.85,35.86-21.7,25.53-11.67,51.92-21.75,74.32-39.35,1.15-.91,2.62-1.21,2.55-3.2-.19-5.86.71-11.62-4-16.76s-7.13-12.6-12.62-17.21c-17-14.3-33.51-29.21-54.16-38.81-19-8.83-37-19.63-55.46-29.69-2.8-1.53-6.76-1.37-6.91.74-.35,4.83-4.75,8-4.21,12.84.31,2.74-.56,4.46-3.33,5.23-4.16,1.17-5.55,5-6.13,8.38s2,6,4.82,8.12c5.37,4.17,11.47,3.52,17.66,3.53,5.8,0,9.1-2.71,11.65-7.58,1.5-2.86,1.1-5.69,1.14-8.56,1.9-.67,3,.66,4.17,1.4,9.93,6.1,20,12,29.7,18.46,12.43,8.32,24.62,17,32.19,30.58,1.45,2.59,1.37,3.71-1.27,4.89-30.07,13.39-59.94,27.32-92.91,32.54-3.71.59-6.72.5-9.88-1.54a87.85,87.85,0,0,0-41.41-13.38c-15-1.09-30.35-1.64-45.11,3-6.77,2.14-14.34,1.88-20.35,6.17-2.7,1.93-4.79,1.9-7.75.76C771.65,146.77,736.33,130.82,701,115c-2.72-1.22-5.44-2.48-7.56-4.72s-3.07-5.12-.79-7.53A231.52,231.52,0,0,1,709.3,86.23a135.87,135.87,0,0,1,45.06-26.05c3.52-1.2,3.77-.08,3.81,2.5,0,3,.49,5.42,3,7.91,6.33,6.32,13.39,7.51,21.42,4.71,8.27-2.88,14.79-11.67,7.84-20.7-3.73-4.85-4.85-9-2.61-14.53,1.32-3.26-.44-4.69-3.85-5.21-5.32-.82-6.42,3.2-8,6.5-1.15,2.48-2.62,5-5.29,4.37-3.47-.79-6.2.56-9.13,1.52C736.45,55.5,711.45,64,688.5,77.65c-14.43,8.57-28.69,17.53-44.53,23.49-3.2,1.21-6,11.55-3.65,14.39,5,6.2,9.46,13,15.52,18.22,35.42,30.55,73.15,58,111.7,84.46a84.69,84.69,0,0,1,12.87,10.2c7.22,7.32,12.3,16.07,17.75,24.58,5.24,8.17,11.29,15.87,15,25-9.95,6.63-15.48,16.8-21.37,26.69A4.35,4.35,0,0,0,790.1,308q-10,19.16-20,38.32a16.65,16.65,0,0,0-2,7.11c-.12,2.94.23,4.56,3.7,3.42a6.13,6.13,0,0,1,5.7.86q-.16,3.21-.31,6.42a4.77,4.77,0,0,0-.08,3.69,7.6,7.6,0,0,0,0,4.23c-.18,8,.58,16.08-.72,23.86-3.3,19.8-5.88,39.81-10.32,59.3-3.34,14.68-4.9,29.35-6.14,44.13a165.71,165.71,0,0,0,1,35.25c1.46,11.31,1.61,22.89,6.84,33.43.27,1.85.53,3.71.8,5.56-.54,7.52-7.38,12.3-8.35,19.92-.46,3.57-1.23,6.17,1.9,8.49C761.9,603.4,762.84,603.94,763.86,604.42Z" transform="translate(-399.9 -0.88)"/><path class="b" d="M813.15,278c-3.7-9.09-9.75-16.79-15-25-5.45-8.51-10.53-17.26-17.75-24.58a84.69,84.69,0,0,0-12.87-10.2c-38.55-26.42-76.28-53.91-111.7-84.46-6.06-5.22-10.49-12-15.52-18.22-2.31-2.84.45-13.18,3.65-14.39,15.84-6,30.1-14.92,44.53-23.49,23-13.62,48-22.15,73.09-30.4,2.93-1,5.66-2.31,9.13-1.52,2.67.61,4.14-1.89,5.29-4.37,1.54-3.3,2.64-7.32,8-6.5,3.41.52,5.17,2,3.85,5.21-2.24,5.54-1.12,9.68,2.61,14.53,7,9,.43,17.82-7.84,20.7-8,2.8-15.09,1.61-21.42-4.71-2.51-2.49-3-4.88-3-7.91,0-2.58-.29-3.7-3.81-2.5A135.87,135.87,0,0,0,709.3,86.23a231.52,231.52,0,0,0-16.68,16.48c-2.28,2.41-1.41,5.19.79,7.53s4.84,3.5,7.56,4.72c35.36,15.86,70.68,31.81,106.88,45.72,3,1.14,5,1.17,7.75-.76,6-4.29,13.58-4,20.35-6.17,14.76-4.65,30.15-4.1,45.11-3a87.85,87.85,0,0,1,41.41,13.38c3.16,2,6.17,2.13,9.88,1.54,33-5.22,62.84-19.15,92.91-32.54,2.64-1.18,2.72-2.3,1.27-4.89-7.57-13.59-19.76-22.26-32.19-30.58-9.68-6.48-19.77-12.36-29.7-18.46-1.2-.74-2.27-2.07-4.17-1.4,0,2.87.36,5.7-1.14,8.56-2.55,4.87-5.85,7.6-11.65,7.58-6.19,0-12.29.64-17.66-3.53-2.77-2.16-5.4-4.78-4.82-8.12s2-7.21,6.13-8.38c2.77-.77,3.64-2.49,3.33-5.23-.54-4.81,3.86-8,4.21-12.84.15-2.11,4.11-2.27,6.91-.74,18.41,10.06,36.48,20.86,55.46,29.69,20.65,9.6,37.12,24.51,54.16,38.81,5.49,4.61,7.83,12,12.62,17.21s3.81,10.9,4,16.76c.07,2-1.4,2.29-2.55,3.2-22.4,17.6-48.79,27.68-74.32,39.35-12.79,5.85-23.77,14.68-35.86,21.7-2.87,1.67-5.67,3.49-8.49,5.24a1.55,1.55,0,0,0-2,1.34l-1,.62a1.49,1.49,0,0,0-2.07,1.31l-3,1.66c-1.14-.27-1.77.24-2,1.34l-2,1.67a1.51,1.51,0,0,0-1.93,1.52l-3.12,2.42c-1.73-.25-2.49.81-3,2.2a.76.76,0,0,0-.52.55A6,6,0,0,0,927,245.3c-3.87,9.81-7.59,19.68-11.61,29.43-3.85,9.31-5.25,20-14.58,26.33-3.78,2.56-7.36,5.41-11,8.13l-5.68,5.38c-2,.85-3.79,2.26-6.11,1.17,1.09-1.32,3.65-1.46,3.28-4.4-1.85,1.8-4.58.94-6.15,2.9l-3,.2c-.67-.34-1.28-.4-1.75.34l-2.76.41c-5.11.74-10.08-2.23-15.23-.55l-3.32-.18c-.23-1.47-1.33-1.49-2.46-1.46-5-6.79-11.16-12.59-17.09-18.57Zm123.3-202c-1.87.79-4.47,1.1-4.29,3.78.13,2,1,4.14,3.68,4.32,7-.25,8-1.15,6.25-5.34C941,76.13,938.86,75.73,936.45,75.9ZM700.94,135l-.79-1.1c-.1-3.08-3.11-4.4-4.17-6.9-.43-3-3-4.13-4.87-6-5.17-5.12-13.82-6.31-16.11-14.86-.83-3.08-2.51-5.48.39-8.39,1-1,3.47-2.71,1.6-4.4-1.55-1.4-3.83-.15-5.49,1a5.79,5.79,0,0,0-2.24,2.54c-.69,2.17-2,3.34-3.83,4.74-2.61,2-5.12,4.67-1.12,8.51,2.48,2.38,4.76,5.21,7.59,7,6.29,4,10.6,11.16,18.88,12L691,131c-1.34,0-2.44.06-3,1.8-1.37,4,2.48,10.17,8,12.33,1.66.65,3.86.58,4.86,2.25,4.17,7,12.34,9.11,17.68,14.74,2.66,2.8,5.61,5.59,9.47,6.92l1.95,1.06c1.12,6.65,7,8.91,11.64,12,9.62,6.33,19.85,11.62,27.93,20.28,3.43,3.68,7.74,7.79,15,7.16l-32-37.3c3.51.21,4.23,3,6.49,2.81a43,43,0,0,0,8,8c1.75,4.66,6.11,7.26,8.87,11.21,5.91,8.43,14.19,14.17,23.9,17.63,2.1.75,4.68,2.16,6.57-1,.88-1.48,2.39.42,3.66.2l2.81.26c3.91,3.08,7.41,2.06,10.46-3,5.22.81,10.49.35,15.71.53,7.29.24,13.33,4.68,19.45,8.29,5.81,3.43,11.87,5.73,18.7,5.59,2.17-.07,4.42-.28,6.15-1.56,6.85-5.06,14.77-8.29,21.79-13l1.09-.19c1,.14,2.07.28,2.77-.79l1.08-.29c3.62-.52,6,2.77,9.22,3.15,13.36,1.56,23.17-4.52,31-14.65,3.39-1.13,7.11-1.67,9.19-5.15,4-.18,6.74-2.75,9.73-4.89a4,4,0,0,0,3.86-3.21h0c6.44-1.59,12.54-3.73,16.29-9.78C992,170,996.05,169,996.8,164a29.53,29.53,0,0,0-7.8,4.87l-2,0c-3.25-1.87-6.73-.82-10.1-.63-1.28.07-2.94,1.42-2.53,2.59,1.68,4.87-2.22,4-4.51,4.59-2.54.64-4.91,1.69-7.34,2.49-3.78,1.26-6.27,5-10.53,5l-2.85-.19c-.43-2.53-3.17-1.76-4.59-3.26-5.36-5.63-10.11-6.18-16.83-2.3-3.58,2.06-7.24,1.93-11.11,1.61-9-.75-17.2-4.19-25.53-7.25-9.68-3.56-19.89-3.25-30-3.53-2-.06-4.36-.91-6.13,1l-2,0c-5.75.21-10.9,2.37-15.82,5.1-9.93,5.54-19.39,5.51-28.5-1.89-2.73-2.22-5.73-1.91-8.67.1-5.61,3.83-8.57,3.4-12.85-1.65-.77-.9-1.64-1.79-2.89-1.71-4.84.34-9.09-1.36-13.26-3.52-1.37-.71-2.83-1-4.06.4l-1.81-.11c.17-2.88-.91-4.84-4-5.27-3.73-.53-7.32-1.12-7.64-6.05,0-.51-1.2-1.35-1.86-1.37-6-.1-11.09-4-17.09-4.2a4.44,4.44,0,0,1-2.77-.83c-4.3-4.24-10.07-6.39-14.53-10.38-1.16-1-2.31-1.91-4-1.76-3.86.35-6.36-1.27-7.51-5-.3-1-1-2-2.16-1.41s-.88,1.8-.5,2.69c1.32,3.05,2.63,6.15,5.87,7.76,0,1.7,1.08,2.78,2.24,3.67,5.44,4.17,10.68,8.73,17.58,10.49l1.1.85,1.93,1.05c-.48,1.17-1.2,2.1-2.61,1.61-2.3-.82-4.51-1.92-6.84-2.63-6.35-1.93-10.66-7-16.11-10.26-3.38-2-7.64-3.37-5.38-8.78A5.47,5.47,0,0,0,700.94,135ZM895.76,249.88c-1.6-1.45-3.54-.68-5.34-.79-1.75-3.48,1.1-5.19,2.93-7.08,6.28-6.49,6.42-7.26,1.48-14.67-.64-1-1.22-2-1.83-3-.8-2.91-2.35-3-4.73-1.54-3.83,2.43-7.87,4.1-12.63,3.22-3.06-.56-6.18-.76-9.28-1.12l-6.47-2.1c-.08-2-2-2.26-3.16-2.7a149.05,149.05,0,0,0-14.94-4.91c-9.95-2.54-13.71-.33-19.35,8.31-2.88,4.42-1.78,9-2.53,13.46-1.42,8.47-1,17,5.51,23.87,2.22,2.36,5.51,3.58,6.81,6.91.07-2.21.12-4,2.75-4.21l2.7.27a69.24,69.24,0,0,0,6.69,3.31c3.49,1.32,6.29,2.94,6.24,7.31A3.21,3.21,0,0,0,854,278a1.65,1.65,0,0,0-.16.93c-3.27,2.25-1.29,3.94.44,5.95,3.41,4,8.38,3.79,12.76,5.19-2.76,2.15-6.72,1.33-9.36,3.78-3.93,3.18-6.11-2.07-9.4-1.95-4.79-5.16-9.56-10.32-14.37-15.45-.64-.67-1.48-1.64-2.49-.76s-.35,1.87.16,2.7c3.81,6.29,8.33,11.85,15.25,15a9.77,9.77,0,0,0,8.58,3.73c1.24,0,2.39.26,2.45,1.81,0,1.06.58,2.42-1.13,2.82-2.6.59-1.83,1.48-.28,2.58a29.28,29.28,0,0,1,3.46,2.81c4.94,4.81,15.75,3.77,20-2a1.52,1.52,0,0,0,.1-.79c3.48-1.2,6.35-2.71,3.47-7.05,2.87.4,5.9,1.16,6.49-3.15l0-.09c5.22.5,7.75-3.93,11.25-6.38,5.61-3.92,8.79-9.81,11.09-16.26-5.66,3.77-9.72,9.28-15.31,13a3.7,3.7,0,0,1-2.11-3c3.88-3.38,3.5-8.18,4.45-12.61.45-2.12-1.31-8,4.87-4.37.32.19,1.3-.74,2-1.14,4.05-2.38,6.25-6.18,8.36-10.38a8.13,8.13,0,0,0-1.56-.47c-1.29-.08-3,.32-3.22-1.49s1.33-2.05,2.67-2.13,2.54-.57,2.08-2c-1.45-4.64.69-8.38,2.69-12.19.4-.75.66-2.19-.09-2.11-5.27.54-2.16-3.46-3-5.27-1.41-3,1.08-6.63-1.81-9.34-4.12-3.88-15-3-17.94,1.79-.89,1.44-.37,3,2,2.44a5.56,5.56,0,0,0,1.18,4.08c2.29,3.42,5.12,6.58,3.41,11.41-.72,2,1.49,2,3,2,.25.92,1.9,1.08,1.44,2.29-1.52,4-.3,8.49-2.5,12.3h-1.81C899.53,252.43,898.78,249.7,895.76,249.88ZM770,63c1.8-.24,3.56-.46,5.33.43,1.51.76,3.22,2.16,4.47-.6,1-2.16,1.3-4.22-.4-6-1.5-1.56-3.4-1.23-5-.07-2.16,1.55-4.25,3.25-4.34,6.28l-.2.11ZM1031,160l0,0c2.5-2,5.06-3.94,7.46-6,1.88-1.65,1.61-3.12-.85-3.92-2-.64-4.08-1.78-6.08-.25s-3.75.39-5.63.35l-1.87,0a3.75,3.75,0,0,0-3.17,1.1c-4.73,4.65-9.48,9.25-15.17,12.77-.87.53-1.27,1.83-1.89,2.78-7.83,3.77-14.4,9.15-21.37,16.38a15.41,15.41,0,0,0,8-3.25c8.39-6.65,18.92-8.29,28.45-12.27,1.43.34,2-.38,2.09-1.69l2.91-1.32c1.39.32,2-.36,2.11-1.66.32,0,.63-.1.94-.17C1028.82,162.68,1030.58,162.32,1031,160Zm12.12-15.91c4.06,2.31,6.19-1.19,8.94-2.12,5.49-1.87,6.52-3.88,2.88-8.13-4-4.64-5.8-11.65-13-13.17-.53-.11-.75-1.38-1.24-2-4.1-5.23-6.06-12.39-13.32-14.77a18.49,18.49,0,0,1-10.57-8.49,4.24,4.24,0,0,0-3.61-2.37c-1.38,0-2.74.87-1.74,2.05,3.12,3.69,5.2,8.52,9.87,10.62,9.15,4.1,13.76,11.8,16.66,20.73.75,2.31,1.47,3.39,3.88,3.46a8.23,8.23,0,0,1,7.79,6.41c.72,3-2.18,5.63-5.41,6.84C1044,143.29,1043.75,143.59,1043.13,144.13ZM813,226.6c-3.77,9.44-1.08,18.77.19,28.12a1.19,1.19,0,0,0,1.46,1c1.27-.24,1.36-1.34,1.3-2.33C815.34,244.44,815.35,235.43,813,226.6Z" transform="translate(-399.9 -0.88)"/><path class="c" d="M846.55,313c1.13,0,2.23,0,2.46,1.46-3.09,3.1-.59,6.31.72,8.59,3.53,6.09.33,9.91-3.59,13.61-1.19,1.13-.48,1.6-.08,2.41-4.66,1.19-8.88-1.13-13.18-2.05-3.62-.78-7.07-2.34-10.08.54-3.39,3.23-1.54,6.6-.46,10.59,1.67,6.17,5.64,12.91-.25,19.38-2.28,2.5-1.57,11,.52,11.25,4,.39,4.67,2.71,5.79,6.07.89,2.69,1.1,5.54,2.23,8.25,2.27,5.45-.92,13.24-5.66,16.58-2.3,1.62-4,3.64-2.27,6.76.6,1.12,1.64,2.39.65,3.7-2.06,2.71-.9,5.52-.06,8.06,1.14,3.44.16,6.12-1.77,8.79A25.06,25.06,0,0,0,817,452.43c0,3.32,1.7,4.65,4.24,3.05,2.92-1.82,3.15.27,4.93,2.09-2.06.19-3.32.3-4.58.43s-2.92-.44-3.31,1.36c-.34,1.51,1,2.41,1.94,3.26,2.9,2.55,9,1.61,11.22-2.18,1.71-2.95,4-3.29,6.05-1.68s2.77,5.14.73,6.62c-3.69,2.67-.1,2.92.84,3.92,1.31,1.39,3.72-.11,5,1.66a4.33,4.33,0,0,1-3.32,1.92c-3.1.16-3.91,2.65-4.16,4.73-.2,1.71,1.63,3.09,3.59,3.38a3.35,3.35,0,0,1,3,2.78,8.45,8.45,0,0,1-4.42-.34c-2.77-1-5.54-2.4-8.41-2.67-4.69-.44-9.27-.55-13.36-3.48-1.35-1-3.63.32-3.34,1.77.79,4-.59,6.77-3.6,9.1-.18.13,0,.64-.1,1-.52,2.76-1.25,5.49-1.56,8.28A338.8,338.8,0,0,0,806.27,536c0,5.73.72,11.61-.54,16.94,5.87,2.47,13.56.87,16.81,8.68a3.72,3.72,0,0,0,4.22,2c2-.51,1.09-2.5,1.24-3.88.84-7.55-1.91-15-.18-22.69,1.21-5.38,1.84-6,7.67-5.63,5.42.33,10.43,2.6,16.07,2.19,2.72-.19,6-2.33,8.86.12-.3,1.79-3.41,1.7-2.77,2.1,4.39,2.78-.71,3.37-1,5-.1.62-.6,1.21-.15,1.84s1.29,1.36,2.05.61c2.36-2.32,4.47,1.76,6.74.16,2.23,4.13,2.92,1.43,4.18-.76.56-1,2.15-2.66,3.42-.29.58,1.06,1.12,1.69,2.21.7s.45-1.72-.14-2.62c-.79-1.22-3.44-2.7-2.75-3,5.55-2.25-2-2.61.26-4.67,4.9,1.72,10.74.24,16.29,2,.78.26,1.52,1,2,0,1.09-2.44,2.15-1.61,3.77-.45,1.24.88,3.89,1.56,3.91-.74,0-4.24,2.08-2.43,3.59-1.54s5.32,1,2.4,4.7c-.83,1.06-2.66,4.27-.49,4.54,5.37.68,1.44,4.54,2.79,6.47.41.57-1.24,2.27-1.8,1.64-3.47-3.84-7.77,1.62-11.47-1.31-1.43-1.13-3.49.16-3.79,2.53s1.45,2.15,2.9,2.34c.64.09,1.26.26,1.8.38.7,1.88-2,2.89-.81,4.76,1.87,2.91.86,5.75-.65,8.37-1.74,3-.14,3.26,2.32,3.51,2.83.29,3.7-1.3,4.48-3.53.51-1.44-.64-4,1.66-4.14a7.38,7.38,0,0,1,4.77,2.18c1.72,1.64.68,4.11.78,6.21.06,1.22.72,3.07-.79,3.58-1.76.58-2.52-1.16-3.06-2.54-.41-1-.85-1.92-2.09-1.51a1.44,1.44,0,0,0-.75,2.08c.55,1.35-.48,2.15-.89,3.19s-.7,2.42.6,3.06,1.68-.45,2.18-1.39c.83-1.54,2.25-1.62,3.27-.5s.64,2.5-.73,3.37c-1.77,1.11-3.18,3.12-5.7,2.37-.87-.26-2-.33-2.2.49-1.2,5.66-7.46,6.43-10.21,11.22-4.8,8.33-.25,16.15-1.15,24.09,0,.11.18.28.31.36,5.61,3.34,1.16,4.93-1.28,6.54-4.15,2.71-4.7,6.11-1.36,9.63.88.92,1.76,2,1.4,3.37-1.15,1.23-2.54-2.11-3.24.17-.57,1.85-1,4.32.28,5.77s1.14-2.15,2.94-1.47c1.15,2.67,1.1,6.05,4,8.09.9.62.63,2-.39,3-2.6,2.64-4.06,5.68-2.06,9.32,1.37,2.51,0,5-1.28,6.26-2.22,2.2-2.17,4.56-2.48,7.18-.91,7.55,1.93,11.75,9.58,13.46,1.65.37,2.87.85,3,2.67s-1.12,1.93-2.42,2.49c-3.34,1.47-6.78,3.07-6.45,7.72.44,6.19.2,12.52,1.47,18.53,1,4.66.14,9.73,2.51,14,2.22,4,1,7.78.48,11.7a25.76,25.76,0,0,0-.19,2.8c5.83.51,3.11,5.06,3.88,8a3.07,3.07,0,0,0,1.48,1.85c3.75,1.56,4.19,4.75,4.35,8.19.34,7.25.62,14.5,2.64,21.56a12.81,12.81,0,0,1-.71,9.27c-2.24,4.58-4.07,9.08-2,14.28.49,1.25-.28,2.51-1,3.71-1.91,3.2-4.47,6.23-1.51,10.43.64.9.59,3.7,0,5.16-1.85,4.73-1.51,8.74,2.36,12.21,1.08,1,1.22,2,.1,2.95-2.89,2.54-.34,7.13-3.61,9.56-.14.11.26,1.49.64,1.63,6.21,2.25,2,4.27-.13,6.3-.29.27-1.19.32-.7.87,4.14,4.74-.51,7.13-3.11,10.27,4.54.51,5.84,3.54,5.87,7,0,1.28-.09,1.77,1.11,1.94,5.18.7,2.26,4.06.85,4.66a5.28,5.28,0,0,0-3.18,6.09c.43,2.86,3.24.37,5,.82,5,1.24,7.83-.82,7.2-5.77-1.23-9.58,5.45-17.94,3.6-27.48a2.37,2.37,0,0,1,.65-1.84c2.22-2.18,1-4-.36-6-2.72-3.91-4-7.41-1.44-12.61,1.49-3,3.07-6.09,4.44-9.18,2.76-6.22,2.66-13.23,3.34-20,.4-4-2-7.33-1.9-10.94a191.71,191.71,0,0,1,2-24.3,22.58,22.58,0,0,0-1-11.61c-1-2.77-1.89-5.31-.53-8.73,1.1-2.78.45-6.5-.89-10-.89-2.35-4.82-7.39,1.6-9.67,1.44-.51,1.34-2.08-.68-2.64-2.42-.68-2.66-2.14-2-4.59,1.27-4.89-.36-9.19-2.82-13.65-2.37-4.3-3.4-9.39-4.74-14.21-.45-1.63.47-4.27,2.4-3,3.79,2.57,7.41-.36,11,.66l2.37.06c.19,9.65-1.64,19.22-1,28.88,1.12,18.13,1.41,36.35-1,54.29-2.07,15.15-1.08,30.21-1.46,45.31a75.15,75.15,0,0,1-1.49,15.37c-3.1,13.17-4.68,26.61-7.19,39.88-3.94,20.83-11.77,40.61-15.08,61.54-1.37,8.7-1.33,16.74,4.58,24.1a34.41,34.41,0,0,1,7.62,16.6c.69,4.67,4.68,8,6.48,12.28,5,12,10.37,23.95,15.42,36,3.65,8.67,9.28,16.3,13.44,25.21-7.37.37-13.1-3.18-19.12-5.68.34-3.28-.81-5.08-4.44-4.82a7.37,7.37,0,0,1-6.93-3.92c-3-5.29-6-10.74-7.44-16.68-2.11-8.68-5.74-16.23-13.09-21.62a2.22,2.22,0,0,1-1-2.58c2.14-5.06-1.31-8.65-3-12.77-.94-2.28-2.1-3.14-4.62-3.58-3.59-.63-7.28-1.62-8-6.58-.39-2.71-1.38-5.74-4.33-7.24.18-2,.35-4.06.53-6.08.93-.1,2.09,0,2.14-1.33.06-1.59-1.29-1.56-2.36-1.77-.53-28.14-3.49-56.35,4.07-84.16,2.55-9.37,1.28-19.25.9-28.85-.35-9-.22-18-.48-27-.1-3.3-.58-6.6-.88-9.89,1-.22,2.23.48,2.28-1.64.07-2.75,0-7.11,1.52-7.91,4.6-2.42,6.8-7,10.62-10,2-1.59,2.4-.39,3.27.91,1.85,2.77,3.51,1.71,4.13-.71,1.67-6.57.9-12.81-1.64-19.31-2.37-6-8.7-10-8.6-17.22a1.31,1.31,0,0,0-1-.8c-4.12.58-3.27-2.44-2.93-4.46.39-2.39-.17-4.56-.39-6.85-.46-4.78-3.31-8.79-3-14.17.2-3.16,2.09-6.82.57-10-2.41-5.1-.49-9.78.46-14.74,1.35-7.05,1.69-14.52-2.88-20.5-3.29-4.3-3.87-8.49-3.1-13.37.17-1.13.67-2.44.29-3.38-3.46-8.69-2.51-18.08-4.27-27.06-.61-3.13-1.82-6.5-1.45-9.92.62-5.8-1.49-11.12-2.84-16.59-.47-1.93-1.45-2.4-3.16-2.25s-1.93,1.43-2,2.84c-.44,6.38-1.63,12.63-1.23,19.16s-3.57,12.48-3.82,19.42,0,14.31-1.81,21.37c-.92,3.55.17,7.62-4.31,9.73-1.29.6-2,2.81-1.56,4.47,1,3.85-.3,7.55-.69,11.26-.24,2.24-.44,4.14.59,6.19,2,4,2.41,8,.23,12.24-1.6,3.14-.29,4.8,3.25,4.95,1.22.05,1.2.82,1.31,1.64a7.29,7.29,0,0,1-1.12,5.28c-4.16,5.63-5.56,12.16-6.41,18.85-.23,1.74.46,3.59-.53,5.28-2,3.48-3.62,7.38-6.27,10.31-3.06,3.39-2.3,9.27-7.54,11-2.72-3.79.81-7.15.71-10.57-.19-6.62,7.54-10.82,4.9-17.91-.08-.22,1.13-.75,1.37-1.3.74-1.65,2-3.47,1.78-5-.52-3.48.16-6.48.92-9.9,2.29-10.37,3.82-20.92,3.43-31.69-.15-4.18-2.38-6.23-5.08-8.38-.86-.68-3.07.27-2.55-2,.32-1.44,1.52-1.79,2.86-2.31,6.58-2.54,10.23-8.61,8.46-15.66-1.19-4.75-2.71-9.35-1.6-14.18a7.05,7.05,0,0,0-.79-5.68c-2.12-3.13-1.56-4.09,2.18-4.58,4.32-.56,8.79-11.51,5.66-12.67-5.6-2.06-3.19-6.16-3.92-9.1-1.14-4.56-6-4.18-8.15-7.51,3.77-1.88,5-4.5,4-8.87s2.79-8.92,1.16-13.38c-2.24-6.15-7.42-10.7-10-16.84-.9-2.21-3.55-1.83-4.1.39-1.43,5.83-3.32,1.59-4.52.22a34.94,34.94,0,0,1-3.6-5.84c-.45-.78-.5-2.37-1.87-1.41-3.74,2.62-4-.62-4.19-2.68-.25-2.94-1.5-5.17-4.2-5.32s-3,2.66-4.17,4.68c-2.84,5-.85,12.61-8.12,15.27-.49.18-.32,1.85-.69,2.74-1.65,4,.07,8.58-2,12.54-4.12-4.17-.2-10.07-3.13-15.18-1.63,5.69-3.77,1.95-5.74,1-2.24-4.55-1.73-11-8.42-12.55-1.28,1.42,1.07,2.91-.4,4.21a5,5,0,0,1-1.26-.71,7,7,0,0,1-1-1.62c-3.28-6.64-3.27-6.63-10.54-4.52a6.27,6.27,0,0,1-1.93,0c-.27-1.85-.53-3.71-.8-5.56,2.78.92,5.72,4.6,8.25-.16,1.94-3.63,6.51-.67,8.54-3.73a1.54,1.54,0,0,0,.33-.91c-.59-4.93,2.06-10.35-2.35-14.7-1.5-1.48-1.56-3,0-4.75,1.78-2,3.3-5.43,1.7-7.17-7.39-8,.17-17-2.14-25.2a1,1,0,0,1,.29-.92c3.84-2.85,2.64-5.39-.3-8a3.74,3.74,0,0,1-1-2.67c.28-5-.94-9.89-1.28-14.84-.41-5.81,2.69-10.52,3.31-15.95.9-7.9,3.55-15.63,1.94-23.74a3.16,3.16,0,0,1,.19-1.48c1.15-3.58.85-7.16.31-10.82-.59-4,2.15-8.5-2.12-11.84-.11-.09.06-.63.18-.92a52,52,0,0,0,4.53-16.6,2.39,2.39,0,0,1,2-2.46c6.25-1,7.93-4.91,7.24-10.7-.57-4.79,1.94-9.24,2.16-13.88.18-4.1.76-7.94,3.12-11.15,1.38-1.87,1.34-2.68-.46-3.91-1.37-.93-3.15-2.51-1.71-4,2.56-2.73,2.56-5.1,2.06-8.81-.65-4.76-2.36-4-4.85-2.41-3.51,2.29-7.51,3.79-11.19,5.39-5.38,2.33-7.19,5.12-6.62,10.65.35,3.44.71,7.29-2.84,9.79a7.6,7.6,0,0,1,0-4.23,2.37,2.37,0,0,0,.08-3.69q.15-3.21.31-6.42c2.07-1.71.32-5.29,2.78-6.51,3-1.47,5.43-2.44,6.79-6.26.66-1.87,6.32.19,8.89-2.69.26-.3.95-.22,1.43-.34,1.64-.42,3.12-2.12,4.72.74.82,1.46,3.6,1.28,5.52.28,1.27-.67-.11-1.33-.1-2,0-3.24-2.69-1.33-4-2.07a4.94,4.94,0,0,1-.75-.64c.38-2.11,2.07-3.41,3.48-4.63a50.73,50.73,0,0,0,6-6.57,3.19,3.19,0,0,0-.36-4.51c-.59-.62-1-1.46-2.39-.87-2.27,1-2.35.76-3.14-1-3.22-7.06-8.59-11.37-16.3-12.65a4.35,4.35,0,0,1,1.68-3.39c9.74,3.11,15.05,12.09,23.11,17.43,1.16.76.78,2.08.82,3.2.08,2.26.43,4.55,3.22,4.66,2.26.09,5.35.88,5.3-3.22,0-1.19,1.08-2.19,1.91-1.51,3.43,2.83,8,.61,11.55,3.52C838.12,321.59,845.41,319.12,846.55,313ZM796.93,577.22c5.25-11.06,3.63-22.21,2.45-32.49-.79-6.92,1.44-13,2-19.19A159.54,159.54,0,0,1,804.06,505c1.13-5.14,1-10.55,2.15-15.7C807,485.86,810,482.89,809,479c-1.38-5.21,4.33-3.8,5.9-6.37.49-.8,2.81.57,4.22,1.59,4.57,3.28,9.91,2.42,16,3.45-2.28-2.76-6.57-.24-5.93-4.15.92-5.64-2.29-6.45-6.61-7.3-3.33-.66-7.84-.91-7.64-6.15.3-8-.57-15.91.76-23.9.85-5.11,2.33-10.16,1.72-15.64-.66-6,1-11.74,4-17.32,2.41-4.37,3.47-10.15,1-14.84-4.22-7.86-3.78-17.09-8.11-24.86-1.35-2.41-.5-7.95-2.62-7.52-3,.61-1.88,5.67-3,8.69a1.58,1.58,0,0,0-.11,1c1,2.87-.35,4.36-2.6,6.15-5.6,4.47-3.9,11.58-5.55,17.5,4.12,1.94,1.88,5.4.61,7-3.88,4.8-3.9,11-7,16.1-3.47,5.75-1.77,13-4.72,19a2.39,2.39,0,0,0,.79,2.74c3,2.64,1.86,5.61.32,8.11a13.66,13.66,0,0,0-1.77,11.3c.52,2.07,1.73,4.29.62,6.76-4.84,10.81-3.82,21.91-1.81,33.19,1.74,9.74,3.18,19.49-2.25,28.94a8.12,8.12,0,0,0,.67,9.71,8.88,8.88,0,0,1,.76,10.71,6,6,0,0,0-.18,6.21c1,2,.77,4,.71,6.14-.13,5-.83,10.4,3,14.56C792.39,572.11,795.31,573.77,796.93,577.22ZM865.3,559.9c.61,1.68,1.34,3.32,1.8,5s2.36,4-.78,4.92c-2.72.83-3.06-1.14-3.56-3.34-.42-1.82-2.28-3.86-4-3.68-1.91.2-2.76,2.36-2.77,4.64,0,4.39-2.11,7.2-6.77,7.57-1,.08-2.12.27-1.9,1.66a1.61,1.61,0,0,0,2.32,1.18c3.3-1.58,5.91.81,8.59,1.06,2.92.27,4.76.34,6.61,2.68.67.86,2.32,0,2.78-1.19.82-2.16,1.67-3.29,3.76-1.11a1.88,1.88,0,0,0,3-.37c1.74-2.71,4.44-2.6,8.58-2.32-4.61-3-7.56-5.51-7.15-10.12.13-1.53-1.28-2.17-2.47-2.83C870.85,562.29,867.93,561.59,865.3,559.9Zm-31.47,1.61c4.09-2.44,5-7,5.25-10.88.32-4.79-3.21.6-4.93-1-1.46-1.3-2.25.45-2.73,1.7-.26.71.31,1,.78,1.56A8.08,8.08,0,0,1,833.83,561.51Zm16.41,10.13c1.15-1.83,1.86-4,3.41-5.74.78-.87.53-2.57-.32-3.75a2.07,2.07,0,0,0-2.15-.92c-1.34.25-2.28,1.29-2,2.44.63,2.59-2.34,5-.15,7.57C849.21,571.44,849.62,571.44,850.24,571.64Zm33.42-.7a62.1,62.1,0,0,0-1.2-7.57c-.31-1.11-1.4-2.51-3-1.83a2.2,2.2,0,0,0-1.09,3.32C880.05,566.69,880.45,569.68,883.66,570.94Zm-26.07-19.77c-1.36,0-1.56,1.06-1.74,2-.37,1.92-2.8,3.1-2.16,5.22.27.9,2.53.74,2.62.44.6-2.16,1.92-3.85,3.05-5.69C859.65,552.69,858.81,551.3,857.59,551.17Zm19.47,8.63c1.17.08,1.84-.45,1.78-1.38a2.21,2.21,0,0,0-2.62-2.25c-.9.07-1.74.65-1.75,1.45C874.46,559.34,876,559.42,877.06,559.8Zm2.55,87.44a6.83,6.83,0,0,0-1.77-5.24C876.72,644.29,876.94,645.66,879.61,647.24Z" transform="translate(-399.9 -0.88)"/><path class="d" d="M922.46,701c-3.56-1-7.18,1.91-11-.66-1.93-1.31-2.85,1.33-2.4,3,1.34,4.82,2.37,9.91,4.74,14.21,2.46,4.46,4.09,8.76,2.82,13.65-.63,2.45-.39,3.91,2,4.59,2,.56,2.12,2.13.68,2.64-6.42,2.28-2.49,7.32-1.6,9.67,1.34,3.54,2,7.26.89,10-1.36,3.42-.47,6,.53,8.73a22.58,22.58,0,0,1,1,11.61,191.71,191.71,0,0,0-2,24.3c-.09,3.61,2.3,7,1.9,10.94-.68,6.77-.58,13.78-3.34,20-1.37,3.09-3,6.2-4.44,9.18-2.6,5.2-1.28,8.7,1.44,12.61,1.37,2,2.58,3.78.36,6a2.37,2.37,0,0,0-.65,1.84c1.85,9.54-4.83,17.9-3.6,27.48.63,5-2.2,7-7.2,5.77-1.79-.45-4.6,2-5-.82a5.28,5.28,0,0,1,3.18-6.09c1.41-.6,4.33-4-.85-4.66-1.2-.17-1.1-.66-1.11-1.94,0-3.42-1.33-6.45-5.87-7,2.6-3.14,7.25-5.53,3.11-10.27-.49-.55.41-.6.7-.87,2.13-2,6.34-4,.13-6.3-.38-.14-.78-1.52-.64-1.63,3.27-2.43.72-7,3.61-9.56,1.12-1,1-2-.1-2.95-3.87-3.47-4.21-7.48-2.36-12.21.58-1.46.63-4.26,0-5.16-3-4.2-.4-7.23,1.51-10.43.72-1.2,1.49-2.46,1-3.71-2-5.2-.21-9.7,2-14.28a12.81,12.81,0,0,0,.71-9.27c-2-7.06-2.3-14.31-2.64-21.56-.16-3.44-.6-6.63-4.35-8.19a3.07,3.07,0,0,1-1.48-1.85c-.77-2.9,2-7.45-3.88-8a25.76,25.76,0,0,1,.19-2.8c.55-3.92,1.74-7.72-.48-11.7-2.37-4.24-1.52-9.31-2.51-14-1.27-6-1-12.34-1.47-18.53-.33-4.65,3.11-6.25,6.45-7.72,1.3-.56,2.61-.7,2.42-2.49s-1.4-2.3-3-2.67c-7.65-1.71-10.49-5.91-9.58-13.46.31-2.62.26-5,2.48-7.18,1.24-1.23,2.65-3.75,1.28-6.26-2-3.64-.54-6.68,2.06-9.32,1-1,1.29-2.41.39-3-2.9-2-2.85-5.42-4-8.09-1.8-.68-1.57,3-2.94,1.47s-.85-3.92-.28-5.77c.7-2.28,2.09,1.06,3.24-.17.36-1.39-.52-2.45-1.4-3.37-3.34-3.52-2.79-6.92,1.36-9.63,2.44-1.61,6.89-3.2,1.28-6.54-.13-.08-.33-.25-.31-.36.9-7.94-3.65-15.76,1.15-24.09,2.75-4.79,9-5.56,10.21-11.22.18-.82,1.33-.75,2.2-.49,2.52.75,3.93-1.26,5.7-2.37,1.37-.87,1.77-2.22.73-3.37s-2.44-1-3.27.5c-.5.94-1,2-2.18,1.39s-1.05-2-.6-3.06,1.44-1.84.89-3.19a1.44,1.44,0,0,1,.75-2.08c1.24-.41,1.68.48,2.09,1.51.54,1.38,1.3,3.12,3.06,2.54,1.51-.51.85-2.36.79-3.58-.1-2.1.94-4.57-.78-6.21a7.38,7.38,0,0,0-4.77-2.18c-2.3.13-1.15,2.7-1.66,4.14-.78,2.23-1.65,3.82-4.48,3.53-2.46-.25-4.06-.5-2.32-3.51,1.51-2.62,2.52-5.46.65-8.37-1.2-1.87,1.51-2.88.81-4.76-.54-.12-1.16-.29-1.8-.38-1.45-.19-3.21,0-2.9-2.34s2.36-3.66,3.79-2.53c3.7,2.93,8-2.53,11.47,1.31.56.63,2.21-1.07,1.8-1.64-1.35-1.93,2.58-5.79-2.79-6.47-2.17-.27-.34-3.48.49-4.54,2.92-3.7-.8-3.75-2.4-4.7s-3.57-2.7-3.59,1.54c0,2.3-2.67,1.62-3.91.74-1.62-1.16-2.68-2-3.77.45-.48,1.09-1.22.3-2,0-5.55-1.78-11.39-.3-16.29-2-2.21,2.06,5.29,2.42-.26,4.67-.69.28,2,1.76,2.75,3,.59.9,1.12,1.73.14,2.62s-1.63.36-2.21-.7c-1.27-2.37-2.86-.67-3.42.29-1.26,2.19-2,4.89-4.18.76-2.27,1.6-4.38-2.48-6.74-.16-.76.75-1.54.13-2.05-.61s.05-1.22.15-1.84c.26-1.6,5.36-2.19,1-5-.64-.4,2.47-.31,2.77-2.1-2.83-2.45-6.14-.31-8.86-.12-5.64.41-10.65-1.86-16.07-2.19-5.83-.35-6.46.25-7.67,5.63-1.73,7.71,1,15.14.18,22.69-.15,1.38.72,3.37-1.24,3.88a3.72,3.72,0,0,1-4.22-2c-3.25-7.81-10.94-6.21-16.81-8.68,1.26-5.33.57-11.21.54-16.94a338.8,338.8,0,0,1,2.12-38.63c.31-2.79,1-5.52,1.56-8.28.06-.33-.08-.84.1-1,3-2.33,4.39-5.08,3.6-9.1-.29-1.45,2-2.74,3.34-1.77,4.09,2.93,8.67,3,13.36,3.48,2.87.27,5.64,1.66,8.41,2.67a8.45,8.45,0,0,0,4.42.34,5,5,0,0,0,.85.2c.11,1.08.56,1.92,1.76,1.95,5.1.15,10.19.23,15.21-.92l1.93.16c1.19,3.42,2.8,4.09,5,.76l1-.06c6.25,0,12.5,0,18.75-.06.88,0,1.15-1.05,1.14-1.93,1-1.48,2-.34,3,0,3.77-.8,7.44-1.83,10.1-4.91h3c3.8,1.69,7.23,1.52,10-2a7.26,7.26,0,0,1,.93-.06l4.18,0h.48l.46.05c3.41,2.66.8,5.09-.67,7.44,2,1,3.86.5,5.6.64,0,.3.07.59.11.89,0,3.63-.4,7.24.66,10.87,3.47,11.94,2.06,24.36,2.91,36.54.48,6.77-1.22,13.76.26,20.68.44,2.1-.29,3.1-2.79,2.13-2-.76-4.81-1.85-6.22-1-3.48,2-7.23,3.53-10.08,7s.17,5,1.06,6.68c1.2,2.26,2.67-.07,3.75-1.17,2.49-2.54,3.88-2.55,5.74,1.07,2.14,4.16,3.34,8.58,4.82,12.9,1.65,4.83,7.34,8.1,6.24,13.6-.92,4.61,5.82,10.45-2.12,13.89-.25.11-.26.92-.27,1.41-.09,9.27-1.86,18.5-.86,27.81q-1,7.35-2,14.7a1.14,1.14,0,0,0,0,1.89q-.15,3-.28,6.09c.68,5.65-3.8,9.67-4.92,15a106.08,106.08,0,0,0-1.64,14.72C920,694.61,922.86,697.4,922.46,701ZM886.75,499.12c-3.43.36-6.62-2-9.13,1.65-.45.67-2.52.61-3.13-.45-2.49-4.33-3-.35-3.27.93a20.54,20.54,0,0,0-.12,5.92c.09,1.37,8.27,5.09,9.32,4.27.49-.37,1.13-1.17,1-1.6C880.2,505.05,884.89,503.28,886.75,499.12Zm5.14-1.09c1.94-2.45,7.11,1.57,8.06-3.77.3-1.7-6.27-6.43-8.85-5.95-4.17.78-1.38,4.66-2.5,7C887.56,497.39,889.77,497.84,891.89,498Z" transform="translate(-399.9 -0.88)"/><path class="d" d="M801,603c2-4,.32-8.51,2-12.54.37-.89.2-2.56.69-2.74,7.27-2.66,5.28-10.27,8.12-15.27,1.15-2,1.56-4.84,4.17-4.68s3.95,2.38,4.2,5.32c.18,2.06.45,5.3,4.19,2.68,1.37-1,1.42.63,1.87,1.41a34.94,34.94,0,0,0,3.6,5.84c1.2,1.37,3.09,5.61,4.52-.22.55-2.22,3.2-2.6,4.1-.39,2.53,6.14,7.71,10.69,10,16.84,1.63,4.46-2.16,9-1.16,13.38s-.22,7-4,8.87c2.19,3.33,7,3,8.15,7.51.73,2.94-1.68,7,3.92,9.1,3.13,1.16-1.34,12.11-5.66,12.67-3.74.49-4.3,1.45-2.18,4.58a7.05,7.05,0,0,1,.79,5.68c-1.11,4.83.41,9.43,1.6,14.18,1.77,7-1.88,13.12-8.46,15.66-1.34.52-2.54.87-2.86,2.31-.52,2.31,1.69,1.36,2.55,2,2.7,2.15,4.93,4.2,5.08,8.38.39,10.77-1.14,21.32-3.43,31.69-.76,3.42-1.44,6.42-.92,9.9.23,1.57-1,3.39-1.78,5-.24.55-1.45,1.08-1.37,1.3,2.64,7.09-5.09,11.29-4.9,17.91.1,3.42-3.43,6.78-.71,10.57L832,789c-3.21,2.66-3.18,5.33,0,8,0,.65.07,1.3.11,1.94a6.92,6.92,0,0,0,1.58,5.55c1,1.32,2.14,3.29,1.05,4.6-2.88,3.44-1,6.07.8,8.92,2.1,3.33,1.74,7,1.13,10.61-.16,1-.77,2.1-.46,2.88,1.93,4.81.57,8.92-2.41,12.74-.73.93-.93,2-.1,2.67,3.42,2.59.45,7.05,3.05,9.92.65.73-.15,1.87-1.37,2.11-3.7.71-2.05,2.54-.81,4.17.72,1,2.43,2.46,2.35,2.56-4.08,4.79.41,7.23,3,10.14-4.59,1.55-7.25,4.06-6.15,9-8.07,5.1,5.38,7,1.12,11.58-.67,0-2.1-.55-3.15-.13-5.26,2.11-6.61-1.44-7.4-5.19-.54-2.55.12-5.35-.39-7.92-.72-3.64.91-8.39-4.22-10.25a3.76,3.76,0,0,1-.52-3c1.5-2.34.84-4.73.28-7.17-.6-2.66-.87-4.84,1.35-7.55a10.44,10.44,0,0,0,1.31-11.81c-6.2-12.7-10.13-25.85-5.17-40.11.55-1.59.29-3.56.42-5.27.51-7-1.91-13.46-2.61-20.21-.65-6.17-.36-11.06,6.1-13.74-5.12-4.65-5.72-5.36-4.36-8.91,3.07-8,2.51-16.08,2.28-24.37-.08-3.07-2.88-7,.56-9.6,2.48-1.84,2.76-4,2.64-6.47a18.48,18.48,0,0,1,2-9.63c1.71-3.28,1-5.09-2.89-5.2-.14-.63-.17-1.37-1-1.45-.18,0-.58.38-.56.56.08.84.82.87,1.44,1-.11,1.15-.48,1.63-1.88,1.5-7-.63-8.89,1.66-7.35,8.33.52,2.25,2,4.76-.42,6.91-1.92-22.44-2.62-44.93-3.63-67.41-.15-3.13-.94-6.23-1.38-9.34-.19-1.34-.79-2.14-2.22-2.11-1.36-3.61-.36-7.39-.54-11.05-.27-5.28-3.84-9.87-2.62-15.29L801,606C801,605,801,604,801,603Z" transform="translate(-399.9 -0.88)"/><path class="c" d="M819.69,873c5.13,1.86,3.5,6.61,4.22,10.25.51,2.57-.15,5.37.39,7.92.79,3.75,2.14,7.3,7.4,5.19,1-.42,2.48.09,3.15.13,4.26-4.59-9.19-6.48-1.12-11.58-1.1-5,1.56-7.49,6.15-9-2.6-2.91-7.09-5.35-3-10.14.08-.1-1.63-1.6-2.35-2.56-1.24-1.63-2.89-3.46.81-4.17,1.22-.24,2-1.38,1.37-2.11-2.6-2.87.37-7.33-3.05-9.92-.83-.63-.63-1.74.1-2.67,3-3.82,4.34-7.93,2.41-12.74-.31-.78.3-1.91.46-2.88.61-3.64,1-7.28-1.13-10.61-1.81-2.85-3.68-5.48-.8-8.92,1.09-1.31-.05-3.28-1.05-4.6a6.92,6.92,0,0,1-1.58-5.55c3.59,3.09,7.6,4.93,12.48,4.14a.64.64,0,0,1,.46.15c2.71,2.87,7.21,4.41,6.85,9.53a3.93,3.93,0,0,0,2.93,4.12c-1.29,15.4-.81,30.85-1.24,46.28-.25,8.8-.48,17.58,2.19,26.29,3.64,11.88,3.07,24.31,3.55,36.59A190.19,190.19,0,0,1,858,952.29c-.73,7.48.57,15.2.36,22.83-.06,2,.45,4-.17,5.92-2.2,0-1.79,1.72-2.36,3-1.19,2.7-1.86,6.41-5.44,6.8-5.67.61-7.08,4.8-8.32,9-.71,2.42-.13,5.21-.82,7.65-1.4,5-5.88,8.82-5.4,14.55,0,.42-.34,1.25-.58,1.27-4.78.44-3.56,4.58-4.9,7.3-1.87,3.8-3.71,7.47-4.27,11.72a3.52,3.52,0,0,1-1.77,2.27c-2.47,1.22-2.49,3.28-2.31,5.51a239.74,239.74,0,0,1-30.18,11.06c0-3.2,1.3-4.87,2.27-6.51,10.23-17.4,15.38-37,24.26-55,5.65-11.39,8.12-24.18,16-34.58,3.63-4.78,2.67-11,1.65-16.48a450.67,450.67,0,0,0-12.16-50.78A98.07,98.07,0,0,1,819.69,873Z" transform="translate(-399.9 -0.88)"/><path class="d" d="M946.41,307.91c7.09,12.7,14.2,25.4,21.23,38.13a18.59,18.59,0,0,1,2.16,5.49c1,5.37.61,5.76-4.84,5.12-3.4-.4-5,.84-5.05,4.24-1.29-.95-.55-2.51-1.08-3.66-.64-1.4-1.6-.93-2.21,0-1,1.47,2,12.43,3.8,14a3.2,3.2,0,0,1,.26,1c-1.52,21.07,3.82,41.28,7.83,61.64,1.57,8,.54,16.61,3.87,24,6,13.24,4.74,27.4,6.28,41.12,1.44,12.82.42,25.86-1.32,38.75-1.39,10.36-2.08,20.85-7,30.4a4.35,4.35,0,0,0-1.48,0c-3.17,1-6.69,4.15-8.65-1.62-.07-.2-1.3-.3-1.78,0-5,2.7-5.1-1-5.46-4.17-.51-4.46.47-8.84,1-13.23,2.11-1.18,3.07-2.56,2.18-5.27-.62-1.87-1-4.85,1.79-5.48,3.9-.86,2.5-3.07,2.5-5.58,0-5.51-3.91-10.39-2-16.39.56-1.71-1.78-4.5,1-6.55.26-.19-.55-2.9-1.11-3-4.56-.78-1.76-3.45-1.42-5.28.55-3,1.4-5.77,1.74-8.84.65-5.86-.9-11.14-2.76-15.84-2.73-6.9-4.42-14.58-4.21-21,.22-7.22-4.18-15.43,1.69-22.34.24-.29-.11-1.25-.39-1.79-1.61-3.17-1.93-6.24.37-9.27a2.91,2.91,0,0,0,0-3.3c-2.21-4-2.75-8.43-3.48-12.83-.42-2.54-.85-4.47-4.24-5.7-3.11-1.13-6.83-3.36-6.41-8.71.56-7.08-2.73-13.81-3.47-20.86-.48-4.6-5.34-8.57-2-13.8.29-.46-.16-1.71-.63-2.28-2.59-3.07,1.76-5.93.24-9.1-.29-.59,2.07-1.16,2.93-.42,4.05,3.45,10.51,1.63,14,6.63.85,1.22,3.28,1.42,5,1.9.79.22,2,1.11,2.44-.46.34-1.33-.29-2.48-1.75-2.38a5.12,5.12,0,0,1-5.31-2.86c-1.37-2.59-2.75-4.47-6.36-4.53-4.15-.06-8-4.2-12.54-.29-1.76,1.52-3.06-.27-3.55-2-.65-2.35,1.11-2.28,2.65-2.41.92-.08,2.08.31,2.51-1.07-2.63-2.43-5.62-4.59-7.79-7.39-1.84-2.38-4.44-5.63.71-7.83,1.21-.51,1.79-1.8,2.52-2.94C933.05,313.34,938,308,946.41,307.91Z" transform="translate(-399.9 -0.88)"/><path class="d" d="M777.07,372.08c3.55-2.5,3.19-6.35,2.84-9.79-.57-5.53,1.24-8.32,6.62-10.65,3.68-1.6,7.68-3.1,11.19-5.39,2.49-1.62,4.2-2.35,4.85,2.41.5,3.71.5,6.08-2.06,8.81-1.44,1.53.34,3.11,1.71,4,1.8,1.23,1.84,2,.46,3.91-2.36,3.21-2.94,7.05-3.12,11.15-.22,4.64-2.73,9.09-2.16,13.88.69,5.79-1,9.7-7.24,10.7a2.39,2.39,0,0,0-2,2.46,52,52,0,0,1-4.53,16.6c-.12.29-.29.83-.18.92,4.27,3.34,1.53,7.88,2.12,11.84.54,3.66.84,7.24-.31,10.82a3.16,3.16,0,0,0-.19,1.48c1.61,8.11-1,15.84-1.94,23.74-.62,5.43-3.72,10.14-3.31,15.95.34,5,1.56,9.83,1.28,14.84a3.74,3.74,0,0,0,1,2.67c2.94,2.65,4.14,5.19.3,8a1,1,0,0,0-.29.92c2.31,8.21-5.25,17.17,2.14,25.2,1.6,1.74.08,5.17-1.7,7.17-1.59,1.78-1.53,3.27,0,4.75,4.41,4.35,1.76,9.77,2.35,14.7a1.54,1.54,0,0,1-.33.91c-2,3.06-6.6.1-8.54,3.73-2.53,4.76-5.47,1.08-8.25.16-5.23-10.54-5.38-22.12-6.84-33.43a165.71,165.71,0,0,1-1-35.25c1.24-14.78,2.8-29.45,6.14-44.13,4.44-19.49,7-39.5,10.32-59.3C777.65,388.16,776.89,380,777.07,372.08Z" transform="translate(-399.9 -0.88)"/><path class="b" d="M854.78,816.89a3.93,3.93,0,0,1-2.93-4.12c.36-5.12-4.14-6.66-6.85-9.53a.64.64,0,0,0-.46-.15c-4.88.79-8.89-1.05-12.48-4.14,0-.64-.08-1.29-.11-1.94,0-2.67,0-5.34,0-8l1.08-9c5.24-1.75,4.48-7.63,7.54-11,2.65-2.93,4.23-6.83,6.27-10.31,1-1.69.3-3.54.53-5.28.85-6.69,2.25-13.22,6.41-18.85a7.29,7.29,0,0,0,1.12-5.28c-.11-.82-.09-1.59-1.31-1.64-3.54-.15-4.85-1.81-3.25-4.95,2.18-4.27,1.79-8.23-.23-12.24-1-2.05-.83-4-.59-6.19.39-3.71,1.65-7.41.69-11.26-.42-1.66.27-3.87,1.56-4.47,4.48-2.11,3.39-6.18,4.31-9.73,1.83-7.06,1.55-14.34,1.81-21.37s4.23-12.87,3.82-19.42.79-12.78,1.23-19.16c.1-1.41.2-2.69,2-2.84s2.69.32,3.16,2.25c1.35,5.47,3.46,10.79,2.84,16.59-.37,3.42.84,6.79,1.45,9.92,1.76,9,.81,18.37,4.27,27.06.38.94-.12,2.25-.29,3.38-.77,4.88-.19,9.07,3.1,13.37,4.57,6,4.23,13.45,2.88,20.5-.95,5-2.87,9.64-.46,14.74,1.52,3.23-.37,6.89-.57,10-.36,5.38,2.49,9.39,3,14.17.22,2.29.78,4.46.39,6.85-.34,2-1.19,5,2.93,4.46a1.31,1.31,0,0,1,1,.8c-.1,7.19,6.23,11.17,8.6,17.22,2.54,6.5,3.31,12.74,1.64,19.31-.62,2.42-2.28,3.48-4.13.71-.87-1.3-1.23-2.5-3.27-.91-3.82,3-6,7.54-10.62,10-1.51.8-1.45,5.16-1.52,7.91,0,2.12-1.31,1.42-2.28,1.64-1.21-2.87-.82-5.89-.88-8.87-.54-26.09-1-52.18-1.73-78.26a55.75,55.75,0,0,0-2.71-15.65c-3.1-9.38-2.94-18.68-.68-28,1.08-4.49.78-8.93.75-13.39,0-3.93-3.16-6.14-7.63-6-4.24.16-4.4,3-4.46,6.26a98.15,98.15,0,0,0,1.94,19.26c1.5,8.34-.36,16.46-2.37,24.6-3.42,13.86-2.76,28.08-2.6,42.19.2,17.63-1.59,35.21-1,52.85A31.6,31.6,0,0,1,854.78,816.89Z" transform="translate(-399.9 -0.88)"/><path class="c" d="M946.41,307.91c-8.46,0-13.36,5.43-17.46,11.85-.73,1.14-1.31,2.43-2.52,2.94-5.15,2.2-2.55,5.45-.71,7.83,2.17,2.8,5.16,5,7.79,7.39-.43,1.38-1.59,1-2.51,1.07-1.54.13-3.3.06-2.65,2.41.49,1.75,1.79,3.54,3.55,2,4.5-3.91,8.39.23,12.54.29,3.61.06,5,1.94,6.36,4.53a5.12,5.12,0,0,0,5.31,2.86c1.46-.1,2.09,1,1.75,2.38-.4,1.57-1.65.68-2.44.46-1.75-.48-4.18-.68-5-1.9-3.46-5-9.92-3.18-14-6.63-.86-.74-3.22-.17-2.93.42,1.52,3.17-2.83,6-.24,9.1.47.57.92,1.82.63,2.28-3.38,5.23,1.48,9.2,2,13.8.74,7.05,4,13.78,3.47,20.86-.42,5.35,3.3,7.58,6.41,8.71,3.39,1.23,3.82,3.16,4.24,5.7.73,4.4,1.27,8.83,3.48,12.83a2.91,2.91,0,0,1,0,3.3c-2.3,3-2,6.1-.37,9.27.28.54.63,1.5.39,1.79-5.87,6.91-1.47,15.12-1.69,22.34-.21,6.43,1.48,14.11,4.21,21,1.86,4.7,3.41,10,2.76,15.84-.34,3.07-1.19,5.88-1.74,8.84-.34,1.83-3.14,4.5,1.42,5.28.56.09,1.37,2.8,1.11,3-2.8,2.05-.46,4.84-1,6.55-2,6,1.93,10.88,2,16.39,0,2.51,1.4,4.72-2.5,5.58-2.83.63-2.41,3.61-1.79,5.48.89,2.71-.07,4.09-2.18,5.26l-.2-.18c.3-2.2.79-4.16-1-6.37s-2.64-5,.08-8c2.1-2.25,2.44-5.29,2.26-8.73-.19-3.66-2.66-5.18-4.34-7.4-7.58-10-2.41-20.64-1.14-30.75.73-5.82,1.54-11.26,0-16.95-1.61-6.12-4.58-11.92-2-18.74,1.16-3.08.06-6.77-2.61-9.58-1.9-2-2.17-5.41-.3-6.73,2.9-2,2.1-4.92,1.44-6.38-1.64-3.57-1.73-7.16-2.2-10.88-.92-7.37-5.4-13.43-8.29-20.09-1.23-2.82-3.22-4.85-1.79-9,1.24-3.61.63-8.69-.85-12.95-1.61-4.64-8.44-6.08-7.55-12.32.07-.49-.9-1.09-1.57-.66-.48.31-1.09,1.06-1,1.49.82,4.24-1.78,6.66-4.45,9.24-1.46,1.41-1.72,3.51-1.68,5.59,0,1.44.18,2.88-.88,4.26-3.88,5-2.82,10.77-1.79,16.34.34,1.84,1.42,4.2,2.89,5.06a6.9,6.9,0,0,1,3.48,7.17c-1.39,6.48,1.67,12.37,1.38,18.65a106.74,106.74,0,0,0,1.71,26.25c1.25,6.12-2.39,10.06-8.43,9.69-5.07-.31-10.25.24-14.41,2.64-2.78,1.59-4.46,1.89-6.87.42.37-1.23,1.75-2.91.52-3.67-4-2.44-.31-5.64-1.12-8.37a1.5,1.5,0,0,1,2.29-1.6c3.8,2.25,5,.41,5.48-3.07.23-1.55,1.68-1.35,2.81-1.43s2.49-.4,2.44-1.32c-.32-5.8,5.84-9.9,3.78-16.35-.91-2.87-1.09-6.69,1.8-9.38a1.16,1.16,0,0,0,.13-1.75c-2.22-2.47-2-5-.48-7.75,1-1.89-.24-3.37-1.49-4.87-3.07-3.65-6.26-6.73-5.55-12.74s2.32-10.32,7-13.67c1-.69,2.13-1.2,2.25-2.48C915,370,925.08,360,920.21,347c-.88-2.36-1-5.16-2.75-7.16,2.38-2.35,6.54,2.46,6.92-1.29.31-3-4.35-1.17-6.67-2.29-7.22-3.51-14.7-3-22.08-.17-2.75,1.05-5.19,3-8.33,2.95.11-1.33-1-1.83-1.64-2.72-2.56-3.76-7.19-6.89-3-12.7a10,10,0,0,0,1.45-9l5.68-5.38c-4.33,5.7,3.39,10.35,1.42,15.86-.06.15.42.71.6.69,2.55-.31,3.76,4.43,7.4,1.53,1.51-1.2,4.67-.67,6.86-2.08a1.64,1.64,0,0,1,2.67,1.14c.22,3.65,2.7,3.94,5.25,3.46,2.75-.52,5.64-1.34,5.18-5.31a2.77,2.77,0,0,1,.65-2.23c8.65-5.47,14.21-15.47,25.3-17.36C945.53,305.89,946,306.9,946.41,307.91Z" transform="translate(-399.9 -0.88)"/><path class="e" d="M965.15,611.2a67,67,0,0,1-.86,15.11A37.78,37.78,0,0,1,957,642.36a31.35,31.35,0,0,0-6.3,13.88c-.73,4.25-2.34,8.13-5.93,11.11-1.83,1.52-2.78,4.08-4.22,6.1-.87,1.23-2.16,2.65-3.62,2.1-1.71-.64-1-2.64-.71-3.94q1.57-6.52,3.56-12.94c3.06-10,5.43-20.07,5.9-30.55.09-1.88.68-4-2-4.18-2.4-.15-3.11,1.91-2.84,3.81,1,7.24-2.77,13.54-3.67,20.39-.35,2.67-1.79,3.35-4.11,2.91-2.6-.5-2.08-2.34-1.89-4.26.31-3,3.34-6.07-.19-9,1.56-9.11,2.35-18.37,5.09-27.26.54-.38,1.31-.63,1.6-1.15,3-5.27,3.66-11.53,7.05-16.69.38-.58.78-3.38-2-3.45-3.91-.1-6.33-3.9-3.62-6.67s-.45-10.15,6.95-9.15a8.73,8.73,0,0,0,.45-2.28c.06-1.75,1.33-1.6,2.46-1.71,2.45,1.36,7.23.19,6.06,5.56,0,.22.59.82.93.84,1,0,1.32-.87,1.66-1.58.62-1.26,1.3-3.84,2.58-2.76,2.92,2.48,6.51.28,9.29,2.14a10.6,10.6,0,0,0,4,8.56c4.51,3.72,3.29,10.07,5.84,14.85.57,1.08-.23,4.35-3,5-5.23-.83-11.17-.73-11-8.52a9.24,9.24,0,0,0-1.27-.23C963.7,599.38,963.28,605.33,965.15,611.2Zm-13.8-25.67c1.59,1.85,10.1,2.45,11.7,1.23s-1.12-4,1.49-5.12c-.3-.36-.54-.9-.92-1-1.69-.64-2.37.84-3.12,1.78C958.14,585.36,955.31,586.78,951.35,585.53Zm8.11,4a4.91,4.91,0,0,0-.78-.35c-.08,0-.22.19-.33.3a4.91,4.91,0,0,0,.78.35C959.21,589.85,959.35,589.64,959.46,589.53Z" transform="translate(-399.9 -0.88)"/><path class="e" d="M800.89,611.6c-1.22,5.42,2.35,10,2.62,15.29.18,3.66-.82,7.44.54,11.05-2.23,2.66-.19,5.34-.14,8,0,1.85,1.55,4.62-2,5.11-3.09.43-2.95-2.08-3.27-3.93-1.12-6.5-4.15-12.67-3.36-19.53.2-1.71-.34-3.62-2.5-3.61-2.59,0-1.81,2.2-1.91,3.74-.71,10.12,2.38,19.59,4.94,29.14,1.38,5.13,2.75,10.26,4,15.41.26,1.05.62,2.55-.52,3.21s-2.47-.36-2.92-1.26c-3.3-6.72-10.52-11.29-10.59-19.84a15,15,0,0,0-3.18-8.31,53,53,0,0,1-9.77-23c-.68-4.12.39-7.86,0-11.76a52,52,0,0,0,.48-19.89c-3.12,7.11-4.85,8.64-11.22,10.61-3.13-2.32-2.36-4.92-1.9-8.49,1-7.62,7.81-12.4,8.35-19.92a6.27,6.27,0,0,0,1.93,0c7.27-2.11,7.26-2.12,10.54,4.52a7,7,0,0,0,1,1.62,5,5,0,0,0,1.26.71c1.47-1.3-.88-2.79.4-4.21,6.69,1.56,6.18,8,8.41,12.55-2.41,8.45,3.93,14,6.9,20.64C799.28,610.5,799.66,611.42,800.89,611.6Zm-27.57-31c1.74,2.09-1,6.74,4.56,6.64,2.82,0,5.49,1.78,8.75-2.23C780.13,587.33,777.63,582.07,773.32,580.63Zm5.18,9.12.21-.31-.37,0Z" transform="translate(-399.9 -0.88)"/><path class="e" d="M945.08,304.89c-11.09,1.89-16.65,11.89-25.3,17.36a2.77,2.77,0,0,0-.65,2.23c.46,4-2.43,4.79-5.18,5.31-2.55.48-5,.19-5.25-3.46a1.64,1.64,0,0,0-2.67-1.14c-2.19,1.41-5.35.88-6.86,2.08-3.64,2.9-4.85-1.84-7.4-1.53-.18,0-.66-.54-.6-.69,2-5.51-5.75-10.16-1.42-15.86,3.67-2.72,7.25-5.57,11-8.13,9.33-6.34,10.73-17,14.58-26.33,4-9.75,7.74-19.62,11.61-29.43a6,6,0,0,1,3.19-3.62c-.77,5.38-4.11,9.79-5.58,14.9-.18.63-.6,1.18-.84,1.79-1.91,4.76-5.26,9.51-5.32,14.3-.07,5.4,6.94,6.69,10.24,10.49A164,164,0,0,1,945.08,304.89Z" transform="translate(-399.9 -0.88)"/><path class="e" d="M846.55,313c-1.14,6.12-8.43,8.59-8.86,15.72-3.55-2.91-8.12-.69-11.55-3.52-.83-.68-1.92.32-1.91,1.51,0,4.1-3,3.31-5.3,3.22-2.79-.11-3.14-2.4-3.22-4.66,0-1.12.34-2.44-.82-3.2-8.06-5.34-13.37-14.32-23.11-17.43,5.89-9.89,11.42-20.06,21.37-26.69l16.31,16.48C835.39,300.41,841.51,306.21,846.55,313Z" transform="translate(-399.9 -0.88)"/><path class="b" d="M873.11,975c2.95,1.5,3.94,4.53,4.33,7.24.71,5,4.4,6,8,6.58,2.52.44,3.68,1.3,4.62,3.58,1.7,4.12,5.15,7.71,3,12.77a2.22,2.22,0,0,0,1,2.58c7.35,5.39,11,12.94,13.09,21.62,1.44,5.94,4.42,11.39,7.44,16.68a7.37,7.37,0,0,0,6.93,3.92c3.63-.26,4.78,1.54,4.44,4.82-12.22-2.58-23.5-7.2-32.08-16.59-9.63-10.54-15.3-23.4-20.25-36.59a5.94,5.94,0,0,1-.56-2.9C874.52,990.84,871.91,982.93,873.11,975Z" transform="translate(-399.9 -0.88)"/><path class="d" d="M790.1,308c7.71,1.28,13.08,5.59,16.3,12.65.79,1.73.87,1.94,3.14,1,1.38-.59,1.8.25,2.39.87a3.19,3.19,0,0,1,.36,4.51,50.73,50.73,0,0,1-6,6.57c-1.41,1.22-3.1,2.52-3.48,4.63a4.94,4.94,0,0,0,.75.64c1.33.74,4.06-1.17,4,2.07,0,.69,1.37,1.35.1,2-1.92,1-4.7,1.18-5.52-.28-1.6-2.86-3.08-1.16-4.72-.74-.48.12-1.17,0-1.43.34-2.57,2.88-8.23.82-8.89,2.69-1.36,3.82-3.84,4.79-6.79,6.26-2.46,1.22-.71,4.8-2.78,6.51a6.13,6.13,0,0,0-5.7-.86c-3.47,1.14-3.82-.48-3.7-3.42a16.65,16.65,0,0,1,2-7.11Q780,327.18,790.1,308Z" transform="translate(-399.9 -0.88)"/><path class="c" d="M936.05,610.56c-2.74,8.89-3.53,18.15-5.09,27.26l-1.78.53c-1-9.31.77-18.54.86-27.81,0-.49,0-1.3.27-1.41,7.94-3.44,1.2-9.28,2.12-13.89,1.1-5.5-4.59-8.77-6.24-13.6-1.48-4.32-2.68-8.74-4.82-12.9-1.86-3.62-3.25-3.61-5.74-1.07-1.08,1.1-2.55,3.43-3.75,1.17-.89-1.66-3.88-3.21-1.06-6.68s6.6-5,10.08-7c1.41-.83,4.24.26,6.22,1,2.5,1,3.23,0,2.79-2.13-1.48-6.92.22-13.91-.26-20.68-.85-12.18.56-24.6-2.91-36.54-1.06-3.63-.61-7.24-.66-10.87,5,.48,3.35,4.9,3.73,7.36,2,13.14,3.79,26.33,5,39.56.46,5.07,2.18,10.17.91,15.3-.93,3.74-.17,7.42-.05,11.09.24,7.54,1.66,15.08-.78,22.53-.35,1.09-1,2.39-.75,3.34C936.64,593.45,935.79,602,936.05,610.56Z" transform="translate(-399.9 -0.88)"/><path class="c" d="M811.28,716.8c2.47-2.15.94-4.66.42-6.91-1.54-6.67.33-9,7.35-8.33,1.4.13,1.77-.35,1.88-1.5l.13-.12c3.87.11,4.6,1.92,2.89,5.2a18.48,18.48,0,0,0-2,9.63c.12,2.5-.16,4.63-2.64,6.47-3.44,2.56-.64,6.53-.56,9.6.23,8.29.79,16.4-2.28,24.37-1.36,3.55-.76,4.26,4.36,8.91-6.46,2.68-6.75,7.57-6.1,13.74.7,6.75,3.12,13.25,2.61,20.21-.13,1.71.13,3.68-.42,5.27-5,14.26-1,27.41,5.17,40.11a10.44,10.44,0,0,1-1.31,11.81c-2.22,2.71-1.95,4.89-1.35,7.55.56,2.44,1.22,4.83-.28,7.17-1.77-12.62-5.14-25-5.51-37.83-.18-6.47.12-13-.06-19.44-.24-8.92.61-17.84-1.4-26.77-1.45-6.43-1.12-13.2-.53-19.83,3.52-.78,2.84-4.07,2-5.51-1.77-3.08-.48-6-.86-8.9-.47-3.58,3.11-7.84-1.55-10.77Q811.27,728.87,811.28,716.8Z" transform="translate(-399.9 -0.88)"/><path class="b" d="M822,1050.19c-.18-2.23-.16-4.29,2.31-5.51a3.52,3.52,0,0,0,1.77-2.27c.56-4.25,2.4-7.92,4.27-11.72,1.34-2.72.12-6.86,4.9-7.3.24,0,.61-.85.58-1.27-.48-5.73,4-9.58,5.4-14.55.69-2.44.11-5.23.82-7.65,1.24-4.24,2.65-8.43,8.32-9,3.58-.39,4.25-4.1,5.44-6.8.57-1.32.16-3.08,2.36-3,.06,5.12-.26,10.21.24,15.36.66,6.69-3,12.47-5.39,18.34a92.29,92.29,0,0,1-11.95,21A42.25,42.25,0,0,1,822,1050.19Z" transform="translate(-399.9 -0.88)"/><path class="e" d="M922.46,701c.4-3.61-2.43-6.4-2.15-10.27A106.08,106.08,0,0,1,922,676c1.12-5.32,5.6-9.34,4.92-15a2,2,0,0,1,.87,2.14c-1.32,12.61.07,25.42-2.91,37.9Z" transform="translate(-399.9 -0.88)"/><path class="c" d="M969.49,573.66c-2.78-1.86-6.37.34-9.29-2.14-1.28-1.08-2,1.5-2.58,2.76-.34.71-.67,1.62-1.66,1.58-.34,0-1-.62-.93-.84,1.17-5.37-3.61-4.2-6.06-5.56,2.31-4.61,2-9.56,2-14.5,0-2.47-.17-5.07,2.89-6.11l.2.18c-.55,4.4-1.53,8.78-1,13.24.36,3.17.49,6.87,5.46,4.17.48-.26,1.71-.16,1.78,0,2,5.77,5.48,2.66,8.65,1.62a4.35,4.35,0,0,1,1.48,0Z" transform="translate(-399.9 -0.88)"/><path class="c" d="M965.15,611.2c-1.87-5.87-1.45-11.82-1.08-17.86a9.24,9.24,0,0,1,1.27.23c-.13,7.79,5.81,7.69,11,8.52l-1.41,2a26.62,26.62,0,0,1-3.35-.57c-1.77-.53-3.52-.91-5.12.3a1.11,1.11,0,0,0,0,1.72c1.56,1.5,3.27,2,5.28.81a4.28,4.28,0,0,1,1.42-.31C972.22,610.48,967.67,609.24,965.15,611.2Z" transform="translate(-399.9 -0.88)"/><path class="c" d="M762.09,602c6.37-2,8.1-3.5,11.22-10.61a52,52,0,0,1-.48,19.89c-2.23-1.74-6.06-.74-7.25-4.25a4.75,4.75,0,0,1,1.84-.15c1.73.65,2.85-.36,4-1.29a1.1,1.1,0,0,0,0-1.74,4.19,4.19,0,0,0-4.23-.48c-1.09.37-2.2.69-3.31,1C762.84,603.94,761.9,603.4,762.09,602Z" transform="translate(-399.9 -0.88)"/><path class="b" d="M811.27,740.93c4.66,2.93,1.08,7.19,1.55,10.77.38,2.9-.91,5.82.86,8.9.83,1.44,1.51,4.73-2,5.51C810,757.74,810.27,749.34,811.27,740.93Z" transform="translate(-399.9 -0.88)"/><path class="c" d="M960.42,371.23c-1.75-1.59-4.81-12.55-3.8-14,.61-.91,1.57-1.38,2.21,0,.53,1.15-.21,2.71,1.08,3.66A27.9,27.9,0,0,1,960.42,371.23Z" transform="translate(-399.9 -0.88)"/><path class="e" d="M973.18,606.08a4.28,4.28,0,0,0-1.42.31c-2,1.22-3.72.69-5.28-.81a1.11,1.11,0,0,1,0-1.72c1.6-1.21,3.35-.83,5.12-.3a26.62,26.62,0,0,0,3.35.57A1.81,1.81,0,0,1,973.18,606.08Z" transform="translate(-399.9 -0.88)"/><path class="e" d="M763.86,604.42c1.11-.34,2.22-.66,3.31-1a4.19,4.19,0,0,1,4.23.48,1.1,1.1,0,0,1,0,1.74c-1.14.93-2.26,1.94-4,1.29a4.75,4.75,0,0,0-1.84.15A2.77,2.77,0,0,1,763.86,604.42Z" transform="translate(-399.9 -0.88)"/><path class="b" d="M873.42,965.86c1.07.21,2.42.18,2.36,1.77,0,1.33-1.21,1.23-2.14,1.33A3.2,3.2,0,0,1,873.42,965.86Z" transform="translate(-399.9 -0.88)"/><path class="d" d="M777.19,364.16a2.37,2.37,0,0,1-.08,3.69A4.77,4.77,0,0,1,777.19,364.16Z" transform="translate(-399.9 -0.88)"/><path class="e" d="M930.68,241.13c.53-1.39,1.29-2.45,3-2.2C933.46,240.73,933,242.15,930.68,241.13Z" transform="translate(-399.9 -0.88)"/><path class="e" d="M927.15,654.94a1.14,1.14,0,0,1,0-1.89A1.08,1.08,0,0,1,927.15,654.94Z" transform="translate(-399.9 -0.88)"/><path class="e" d="M936.82,236.51a1.51,1.51,0,0,1,1.93-1.52C938.85,236.44,938.17,236.9,936.82,236.51Z" transform="translate(-399.9 -0.88)"/><path class="e" d="M945.7,230.32a1.49,1.49,0,0,1,2.07-1.31C947.77,230.54,947,230.84,945.7,230.32Z" transform="translate(-399.9 -0.88)"/><path class="e" d="M948.75,228.39a1.55,1.55,0,0,1,2-1.34C950.79,228.53,950.08,228.94,948.75,228.39Z" transform="translate(-399.9 -0.88)"/><path class="e" d="M940.71,233.32c.26-1.1.89-1.61,2-1.34C942.75,233.47,942,233.82,940.71,233.32Z" transform="translate(-399.9 -0.88)"/><path class="d" d="M728.89,154.15c-6.9-1.76-12.14-6.32-17.58-10.49-1.16-.89-2.28-2-2.24-3.67,5.17-2.79,8.11,1.44,11.26,4,5.76,4.62,11.6,8.3,19.44,8.15,3.89-.07,9.8,1.76,10.52,4,2.53,8,9.77,6.86,14.89,9.69l1.81.11c1.08,1.46,2.76,1.58,4.32,2.14,4.17,1.49,7.79,4.1,9.47,8.21.9,2.21,2,2.34,3.86,2.78,8,1.84,16.58.94,23.05,8.32,2.54,2.9,9.18,5.76,12.73,3.08,4.35-3.29,7.37-1.8,11.21-.79,2,.53,4.37,1.16,6.13-.6,2-2,1.31-4.41.22-6.51-1.7-3.29-.29-5.4,2.32-7.11a15.66,15.66,0,0,1,6.27-2.7c2.35-.38,5.55-.31,6.47-3.65l2,0c1.71,1.66,3.71.8,5.65.68,10-.62,13,1.73,13.28,10.62.15,4.31-.09,8.65.11,13,.22,4.55,2.6,8.64,2.92,13.34.6-2.32,3.43-3.5,2.74-5.88-1.73-6-.33-12.16-1.52-18.26-1.41-7.21.31-8.36,7.93-7.57,1.48.15,3,0,4.49.08,7.29.64,12.83,5.94,12.29,11.7-.39,4.11,1.08,5.34,5,3.7a43.41,43.41,0,0,0,7.3-4.23c1.5-1,2.94-1.69,4.57-.64s1,2.49.57,4c-.86,3.06.37,3.65,3,2.28,1.31-.67,2.88-1,4-1.84,6.46-4.88,14.05-6.23,21.78-7.23L952,183c.17,6.46.39,6.67,7.4,7.19-2.08,3.48-5.8,4-9.2,5.14-6.11,2.33-13.74.9-18.08,7.79-1,1.54-3.65,2.21-5.9,1.55-4.07-1.18-8.22-.35-12.32-.59-2-.12-3.62.42-4,2.76l-1.08.29c-1-.1-2.07-.27-2.77.79l-1.09.19c-10.85,1.93-19.44,8.18-27.94,14.6-6.83.14-12.89-2.16-18.7-5.59-6.12-3.61-12.16-8.05-19.45-8.29-5.22-.18-10.49.28-15.71-.53-3.53.87-6.46,3.79-10.46,3L810,211c-.57-4.57-.38-9.7-7.59-8.49-1.13.19-2.29-1.07-3.24-2.08-1.92-2.05-4.07-3.87-6.06-5.86-1.21-1.2-2.15-1.61-3.8-.39-4.76,3.52-6.31,3.45-8.59-2.16-2.67-6.53-7.81-8.07-13.72-9a43,43,0,0,1-8-8c-.6-4.86-4.4-6.06-8.15-8-6.46-3.33-12.16-8.06-18.9-11L730,155Z" transform="translate(-399.9 -0.88)"/><path class="a" d="M854,278a3.21,3.21,0,0,1-3.42-3.48c0-4.37-2.75-6-6.24-7.31a69.24,69.24,0,0,1-6.69-3.31c2.62-5.27,7.85-8.42,10.83-13.39l2.37,0,4,4.15c.63,1.94,2.1,2.54,4,2.5l.48,1.24a5,5,0,0,0,.55-.44c-.23-.36-.5-.69-.76-1-.21-1.56-.77-2.8-2.6-2.9l-.76-1.93c-.52-2.33,5.81-5.86-1.23-7.06-.83-4.06-5.79-4.29-7.22-7.8.67-1,.9-2.06-.12-3-.76-3,2.27-4.08,3-6.29,2-2.36,4.32-4.16,7.69-3.95a1.86,1.86,0,0,0,2-1.09l6.47,2.1c-.36,1.34.46,1.64,1.54,1.9,8.66,2.08,17.12,2.32,25.1-2.46.61,1,1.19,2,1.83,3,4.94,7.41,4.8,8.18-1.48,14.67-1.83,1.89-4.68,3.6-2.94,7.08-.87.73-.42,1.55-.15,2.36-2.18,2.29-4.64,4.43-4.88,8,1.7.33,1.93-.8,2.49-1.57,3.84-5.36,4.78-5.48,10.28-1.59a7.38,7.38,0,0,0,1.8.64c.27.6.53,1.21.8,1.81-3.09,4.94-7.65,8.85-10,14.31-.09.22-.58.26-.88.38l-11.48-15.1c-1.32-7.47,2.76-15.29-2-22.68L874.18,255l-.25,2c-1.27.63-2.08,1.51-1.7,3.06-.54,1.81-1.83,2.92-3.23,4.14C863.91,268.7,859,273.36,854,278Z" transform="translate(-399.9 -0.88)"/><path class="c" d="M731.92,156.05c6.74,2.92,12.44,7.65,18.9,11,3.75,1.94,7.55,3.14,8.15,8-2.26.16-3-2.6-6.49-2.81l32,37.3c-7.29.63-11.6-3.48-15-7.16-8.08-8.66-18.31-14-27.93-20.28-4.65-3.07-10.52-5.33-11.64-12,2,.81,4.16,1.33,5.89,2.51,2.45,1.66,4.08,1.8,5.48-1.13s.7-4.69-2.16-5.95a25.35,25.35,0,0,1-4.33-2.39c-4.18-2.88-5.23-2.54-6.49,2.46A24.44,24.44,0,0,0,728,169c-3.86-1.33-6.81-4.12-9.47-6.92-5.34-5.63-13.51-7.75-17.68-14.74-1-1.67-3.2-1.6-4.86-2.25-5.47-2.16-9.32-8.28-8-12.33.59-1.74,1.69-1.77,3-1.8,4,.35,5.67,5.25,10,5-2.25,5.41,2,6.75,5.39,8.78,5.45,3.27,9.76,8.33,16.11,10.26,2.33.71,4.54,1.81,6.84,2.63C730.72,158.15,731.44,157.22,731.92,156.05Z" transform="translate(-399.9 -0.88)"/><path class="e" d="M884.07,314.57a10,10,0,0,1-1.45,9c-4.15,5.81.48,8.94,3,12.7.6.89,1.75,1.39,1.64,2.72-4.89,4.47-11.71,5-17.2,8.42-2.53,1.57-7.37,1.45-9.75-.49-4.39-3.56-10.18-4.14-14.29-7.88-.4-.81-1.11-1.28.08-2.41,3.92-3.7,7.12-7.52,3.59-13.61-1.31-2.28-3.81-5.49-.72-8.59l3.32.18c4.95,3.6,10.07,2.6,15.23.55l2.76-.41c.79,1,1.27.31,1.75-.34l3-.2c.22,1.89.55,3.6,2.87,1.5C880.28,316.83,882.12,315.42,884.07,314.57Z" transform="translate(-399.9 -0.88)"/><path class="e" d="M859.89,222.85a1.86,1.86,0,0,1-2,1.09c-3.37-.21-5.66,1.59-7.69,3.95l-2.36-2c.36-2.81-.38-4.44-3.7-3.89-3.09.52-6.3.48-9.33,1.21-4.77,1.15-5.67,4.07-3,8a12.76,12.76,0,0,0,10.91,5.85c.32,1.1.14,2.06-1.09,2.33-2.52.57-2.35,2.41-2.2,4.29-.67,1.11-2.1,2.42-1.88,3.29,1.55,6-1.25,11.11-2.6,16.53-2.63.19-2.68,2-2.75,4.21-1.3-3.33-4.59-4.55-6.81-6.91-6.5-6.88-6.93-15.4-5.51-23.87.75-4.43-.35-9,2.53-13.46,5.64-8.64,9.4-10.85,19.35-8.31a149.05,149.05,0,0,1,14.94,4.91C857.93,220.59,859.81,220.84,859.89,222.85Zm-27,29.37c.12-1.91-1.38-2.66-2.7-2.93s-2,.93-2.1,2.21c-.21,1.77.86,2.31,2.36,2.33C831.59,253.84,832.87,254,832.89,252.22Z" transform="translate(-399.9 -0.88)"/><path class="c" d="M949.18,182.77c-7.73,1-15.32,2.35-21.78,7.23-1.16.87-2.73,1.17-4,1.84-2.66,1.37-3.89.78-3-2.28.42-1.51,1-3-.57-4s-3.07-.36-4.57.64a43.41,43.41,0,0,1-7.3,4.23c-3.91,1.64-5.38.41-5-3.7.54-5.76-5-11.06-12.29-11.7-1.49-.13-3,.07-4.49-.08-7.62-.79-9.34.36-7.93,7.57,1.19,6.1-.21,12.27,1.52,18.26.69,2.38-2.14,3.56-2.74,5.88-.32-4.7-2.7-8.79-2.92-13.34-.2-4.31,0-8.65-.11-13-.32-8.89-3.3-11.24-13.28-10.62-1.94.12-3.94,1-5.65-.68,1.77-1.93,4.1-1.08,6.13-1,10.09.28,20.3,0,30,3.53,8.33,3.06,16.53,6.5,25.53,7.25,3.87.32,7.53.45,11.11-1.61,6.72-3.88,11.47-3.33,16.83,2.3C946,181,948.75,180.24,949.18,182.77Z" transform="translate(-399.9 -0.88)"/><path class="c" d="M853,169.1c-.92,3.34-4.12,3.27-6.47,3.65a15.66,15.66,0,0,0-6.27,2.7c-2.61,1.71-4,3.82-2.32,7.11,1.09,2.1,1.75,4.53-.22,6.51-1.76,1.76-4.11,1.13-6.13.6-3.84-1-6.86-2.5-11.21.79-3.55,2.68-10.19-.18-12.73-3.08-6.47-7.38-15.1-6.48-23.05-8.32-1.88-.44-3-.57-3.86-2.78-1.68-4.11-5.3-6.72-9.47-8.21-1.56-.56-3.24-.68-4.32-2.14,1.23-1.43,2.69-1.11,4.06-.4,4.17,2.16,8.42,3.86,13.26,3.52,1.25-.08,2.12.81,2.89,1.71,4.28,5.05,7.24,5.48,12.85,1.65,2.94-2,5.94-2.32,8.67-.1,9.11,7.4,18.57,7.43,28.5,1.89C842.14,171.47,847.29,169.31,853,169.1Z" transform="translate(-399.9 -0.88)"/><path class="d" d="M873.93,257.05c.09-.67.17-1.35.25-2,2.54-.38,2.59,2.44,4.2,3.26l11.48,15.1c.87,1.74,2.35,3.21,2.28,5.35-5.68,7.65-9.09,8.83-15,5.19-.06-.33-.11-.66-.16-1-.24-2.13.45-4.41-.76-6.79-2.71,2.05-2.18,4.55-2.18,6.9-.11,1.08,0,2.24-1,3-7.57.72-13.9-1.85-19.19-7.19A1.65,1.65,0,0,1,854,278c5-4.59,9.88-9.25,15-13.7,1.4-1.22,2.69-2.33,3.23-4.14C874.05,259.79,875.17,259.08,873.93,257.05Z" transform="translate(-399.9 -0.88)"/><path class="e" d="M892.14,278.74c.07-2.14-1.41-3.61-2.28-5.35.3-.12.79-.16.88-.38,2.36-5.46,6.92-9.37,10-14.31,5.17.54,2-2.84,2.18-4.64,2.21-3.81,1-8.33,2.51-12.3.46-1.21-1.19-1.37-1.44-2.29.35-1.49,1.89-1.73,2.82-2.61,4.45-4.2,4.41-8.6-.56-12-2.86-2-6.42-2.34-9.83-2.82-2.36.56-2.88-1-2-2.44,2.94-4.75,13.82-5.67,17.94-1.79,2.89,2.71.4,6.37,1.81,9.34.86,1.81-2.25,5.81,3,5.27.75-.08.49,1.36.09,2.11-2,3.81-4.14,7.55-2.69,12.19.46,1.46-.72,2-2.08,2s-2.95.28-2.67,2.13,1.93,1.41,3.22,1.49a8.13,8.13,0,0,1,1.56.47c-2.11,4.2-4.31,8-8.36,10.38-.68.4-1.66,1.33-2,1.14-6.18-3.67-4.42,2.25-4.87,4.37-.95,4.43-.57,9.23-4.45,12.6A3.13,3.13,0,0,0,892.14,278.74Z" transform="translate(-399.9 -0.88)"/><path class="c" d="M690.78,129.14c-8.28-.82-12.59-8-18.88-12-2.83-1.78-5.11-4.61-7.59-7-4-3.84-1.49-6.48,1.12-8.51,1.8-1.4,3.14-2.57,3.83-4.74a5.79,5.79,0,0,1,2.24-2.54c1.66-1.15,3.94-2.4,5.49-1,1.87,1.69-.64,3.44-1.6,4.4-2.9,2.91-1.22,5.31-.39,8.39,2.29,8.55,10.94,9.74,16.11,14.86,1.85,1.84,4.44,3,4.87,6C693.92,126.91,691.89,126.92,690.78,129.14Z" transform="translate(-399.9 -0.88)"/><path class="c" d="M767,183.05c5.91.94,11,2.48,13.72,9,2.28,5.61,3.83,5.68,8.59,2.16,1.65-1.22,2.59-.81,3.8.39,2,2,4.14,3.81,6.06,5.86,1,1,2.11,2.27,3.24,2.08,7.21-1.21,7,3.92,7.59,8.49-1.27.22-2.78-1.68-3.66-.2-1.89,3.21-4.47,1.8-6.57,1-9.71-3.46-18-9.2-23.9-17.63C773.07,190.31,768.71,187.71,767,183.05Z" transform="translate(-399.9 -0.88)"/><path class="c" d="M1043.13,144.13c.62-.54.82-.84,1.1-.95,3.23-1.21,6.13-3.8,5.41-6.84a8.23,8.23,0,0,0-7.79-6.41c-2.41-.07-3.13-1.15-3.88-3.46-2.9-8.93-7.51-16.63-16.66-20.73-4.67-2.1-6.75-6.93-9.87-10.62-1-1.18.36-2,1.74-2.05a4.24,4.24,0,0,1,3.61,2.37,18.49,18.49,0,0,0,10.57,8.49c7.26,2.38,9.22,9.54,13.32,14.77.49.63.71,1.9,1.24,2,7.23,1.52,9,8.53,13,13.17,3.64,4.25,2.61,6.26-2.88,8.13C1049.32,142.94,1047.19,146.44,1043.13,144.13Z" transform="translate(-399.9 -0.88)"/><path class="d" d="M1023.89,164.68,1021,166a1.87,1.87,0,0,0-2.1,1.69c-9.53,4-20.06,5.62-28.45,12.27a15.41,15.41,0,0,1-8,3.25c7-7.23,13.54-12.61,21.37-16.38,6.19-1.38,12.52-2.32,17.68-6.56,1.59-1.3,2.84-3.53,1.81-4.57-2.54-2.58.5-3.73.74-5.52l1.87,0a3.26,3.26,0,0,0,1.69,2.89c3.12,1.44,3.68,4,3.41,7l0,0c-1.84.24-3.6.59-4.07,2.81-.31.07-.62.13-.94.17A1.84,1.84,0,0,0,1023.89,164.68Z" transform="translate(-399.9 -0.88)"/><path class="c" d="M959.43,190.15c-7-.52-7.23-.73-7.4-7.19,4.26,0,6.75-3.78,10.53-5,2.43-.8,4.8-1.85,7.34-2.49,2.29-.57,6.19.28,4.51-4.59-.41-1.17,1.25-2.52,2.53-2.59,3.37-.19,6.85-1.24,10.1.63a5.33,5.33,0,0,1-4.26,3.09c-5.8,1-6.78,6.46-9.73,10.07h0c-4.11.3-4.6.71-3.86,3.21C966.17,187.4,963.4,190,959.43,190.15Z" transform="translate(-399.9 -0.88)"/><path class="d" d="M857.71,293.8c2.64-2.45,6.6-1.63,9.36-3.78l4.23-.55a14,14,0,0,0,6.38,0c4.29,1.07,7.4,5.3,12.35,4.62-.59,4.31-3.62,3.55-6.49,3.14l-3-1c-2-.4-3.63-2.78-6.7-1.32,1.89,1.67,3.76,2.62,4.38,4.61-.68,2.11,2.24,2.83,1.86,4.81a1.52,1.52,0,0,1-.1.79c-2.32.07-5.84-.79-6.74.37-3.85,5-5.48.08-7.53-1.41-1.87-1.37-3.46-3.44,1-3.81a3.56,3.56,0,0,0,2.85-3.58C865.63,295.51,861.12,297,857.71,293.8Z" transform="translate(-399.9 -0.88)"/><path class="c" d="M765.18,165.82c-5.12-2.83-12.36-1.73-14.89-9.69-.72-2.27-6.63-4.1-10.52-4-7.84.15-13.68-3.53-19.44-8.15-3.15-2.52-6.09-6.75-11.26-4-3.24-1.61-4.55-4.71-5.87-7.76-.38-.89-.52-2.18.5-2.69s1.86.42,2.16,1.41c1.15,3.74,3.65,5.36,7.51,5,1.64-.15,2.79.73,4,1.76,4.46,4,10.23,6.14,14.53,10.38a4.44,4.44,0,0,0,2.77.83c6,.15,11.07,4.1,17.09,4.2.66,0,1.82.86,1.86,1.37.32,4.93,3.91,5.52,7.64,6.05C764.27,161,765.35,162.94,765.18,165.82Z" transform="translate(-399.9 -0.88)"/><path class="c" d="M910,206.8c.34-2.34,1.95-2.88,4-2.76,4.1.24,8.25-.59,12.32.59,2.25.66,4.94,0,5.9-1.55,4.34-6.89,12-5.46,18.08-7.79-7.87,10.14-17.68,16.22-31,14.66C915.93,209.57,913.59,206.28,910,206.8Z" transform="translate(-399.9 -0.88)"/><path class="c" d="M857.71,293.8c3.41,3.15,7.92,1.71,11.88,2.85a3.56,3.56,0,0,1-2.85,3.58c-4.5.37-2.91,2.44-1,3.81,2,1.49,3.68,6.41,7.53,1.41.9-1.16,4.42-.3,6.74-.37-4.28,5.74-15.09,6.78-20,2a29.28,29.28,0,0,0-3.46-2.81c-1.55-1.1-2.32-2,.28-2.58,1.71-.4,1.17-1.76,1.13-2.82-.06-1.55-1.21-1.85-2.45-1.81a9.76,9.76,0,0,1-8.58-3.74l1.45-1.44C851.6,291.73,853.78,297,857.71,293.8Z" transform="translate(-399.9 -0.88)"/><path class="c" d="M890,294.09c-4.95.68-8.06-3.55-12.35-4.62-.17-1.84-.33-3.69-.5-5.54,5.87,3.64,9.28,2.46,15-5.19a3.13,3.13,0,0,1,2.84,2.57,3.67,3.67,0,0,0,2.11,3c-1.1,4.12-6.29,5.27-7,9.66Z" transform="translate(-399.9 -0.88)"/><path class="a" d="M896.43,222c3.41.48,7,.85,9.83,2.82,5,3.42,5,7.82.56,12-.93.88-2.47,1.12-2.82,2.61-1.49.05-3.7.06-3-2,1.71-4.83-1.12-8-3.41-11.41A5.56,5.56,0,0,1,896.43,222Z" transform="translate(-399.9 -0.88)"/><path class="d" d="M890.06,294c.74-4.39,5.93-5.54,7-9.66,5.59-3.7,9.65-9.21,15.31-13-2.3,6.45-5.48,12.34-11.09,16.26C897.81,290.07,895.28,294.5,890.06,294Z" transform="translate(-399.9 -0.88)"/><path class="c" d="M835,263.58c1.35-5.42,4.15-10.57,2.6-16.53-.22-.87,1.21-2.18,1.88-3.29,1.71,4,5.52,5.15,9,6.7-3,5-8.21,8.12-10.83,13.39Z" transform="translate(-399.9 -0.88)"/><path class="c" d="M1024.07,150.18c-.24,1.79-3.28,2.94-.74,5.52,1,1-.22,3.27-1.81,4.57-5.16,4.24-11.49,5.18-17.68,6.56.62-1,1-2.25,1.89-2.78,5.69-3.52,10.44-8.12,15.17-12.77A3.75,3.75,0,0,1,1024.07,150.18Z" transform="translate(-399.9 -0.88)"/><path class="d" d="M728,169a24.44,24.44,0,0,1,.34-3.44c1.26-5,2.31-5.34,6.49-2.46a25.35,25.35,0,0,0,4.33,2.39c2.86,1.26,3.53,3.12,2.16,5.95s-3,2.79-5.48,1.13c-1.73-1.18-3.91-1.7-5.89-2.51Z" transform="translate(-399.9 -0.88)"/><path class="c" d="M813,226.6c2.35,8.83,2.34,17.84,3,26.79.06,1,0,2.09-1.3,2.33a1.19,1.19,0,0,1-1.46-1C811.92,245.37,809.23,236,813,226.6Z" transform="translate(-399.9 -0.88)"/><path class="c" d="M871.3,289.47l-4.23.55c-4.38-1.4-9.35-1.22-12.76-5.19-1.73-2-3.71-3.7-.44-5.95,5.29,5.34,11.62,7.91,19.19,7.19C872.47,287.2,871.88,288.33,871.3,289.47Z" transform="translate(-399.9 -0.88)"/><path class="d" d="M973.05,182c3-3.61,3.93-9,9.73-10.07a5.33,5.33,0,0,0,4.26-3.09l2,0c.12,1.11.23,2.22.34,3.34C985.59,178.31,979.49,180.45,973.05,182Z" transform="translate(-399.9 -0.88)"/><path class="d" d="M848.31,291.85l-1.45,1.44c-6.92-3.1-11.44-8.66-15.25-15-.51-.83-1.08-1.9-.16-2.7s1.85.09,2.49.76C838.75,281.53,843.52,286.69,848.31,291.85Z" transform="translate(-399.9 -0.88)"/><path class="c" d="M1031,160c.27-3-.29-5.54-3.41-7a3.26,3.26,0,0,1-1.69-2.89c1.88,0,3.75,1.08,5.63-.35s4.08-.39,6.08.25c2.46.8,2.73,2.27.85,3.92C1036.1,156.07,1033.54,158,1031,160Z" transform="translate(-399.9 -0.88)"/><path class="e" d="M770.06,63c.09-3,2.18-4.73,4.34-6.28,1.61-1.16,3.51-1.49,5,.07,1.7,1.77,1.38,3.83.4,6-1.25,2.76-3,1.36-4.47.6-1.77-.89-3.53-.67-5.33-.43Z" transform="translate(-399.9 -0.88)"/><path class="e" d="M877.09,222.67c8.5-6.42,17.09-12.67,27.94-14.6-7,4.75-14.94,8-21.79,13C881.51,222.39,879.26,222.6,877.09,222.67Z" transform="translate(-399.9 -0.88)"/><path class="e" d="M893,224.39c-8,4.78-16.44,4.54-25.1,2.46-1.08-.26-1.9-.56-1.54-1.9,3.1.36,6.22.56,9.28,1.12,4.76.88,8.8-.79,12.63-3.22C890.65,221.34,892.2,221.48,893,224.39Z" transform="translate(-399.9 -0.88)"/><path class="e" d="M900,256.89a7.38,7.38,0,0,1-1.8-.64c-5.5-3.89-6.44-3.77-10.28,1.59-.56.77-.79,1.9-2.49,1.57.24-3.53,2.7-5.67,4.88-8,1.23-.38,2.13-2.26,3.84-.5,1,1.07,1.7.25,1.66-1.07,3-.18,3.77,2.55,5.37,4.18Z" transform="translate(-399.9 -0.88)"/><path class="d" d="M690.78,129.14c1.11-2.22,3.14-2.23,5.2-2.14,1.06,2.5,4.07,3.82,4.17,6.9l.79,1.1a5.47,5.47,0,0,1,0,1c-4.29.26-6-4.64-10-5Z" transform="translate(-399.9 -0.88)"/><path class="e" d="M936.45,75.9c2.41-.17,4.57.23,5.64,2.76,1.78,4.19.71,5.09-6.24,5.34C936.4,81.33,937.58,78.7,936.45,75.9Z" transform="translate(-399.9 -0.88)"/><path class="e" d="M880.53,296.19l3,1c2.88,4.35,0,5.86-3.47,7.06.38-2-2.54-2.7-1.86-4.81C880.58,299.5,880.54,297.83,880.53,296.19Z" transform="translate(-399.9 -0.88)"/><path class="c" d="M867.56,315.19c-5.16,2.05-10.28,3.05-15.23-.55C857.48,313,862.45,315.93,867.56,315.19Z" transform="translate(-399.9 -0.88)"/><path class="c" d="M936.45,75.9c1.13,2.8-.05,5.43-.6,8.1-2.71-.18-3.56-2.29-3.69-4.32C932,77,934.58,76.69,936.45,75.9Z" transform="translate(-399.9 -0.88)"/><path class="c" d="M989.34,172.26c-.11-1.12-.22-2.23-.34-3.34a29.29,29.29,0,0,1,7.8-4.88C996.05,169,992,170,989.34,172.26Z" transform="translate(-399.9 -0.88)"/><path class="c" d="M812.77,211.3c4,.75,6.93-2.17,10.46-3C820.18,213.36,816.68,214.38,812.77,211.3Z" transform="translate(-399.9 -0.88)"/><path class="c" d="M878,315.74c-2.32,2.1-2.65.39-2.87-1.5,1.57-2,4.3-1.1,6.15-2.9C881.61,314.28,879.05,314.42,878,315.74Z" transform="translate(-399.9 -0.88)"/><path class="c" d="M900,256.89l1.18-2.83h1.8c-.19,1.8,3,5.18-2.18,4.64C900.48,258.1,900.22,257.49,900,256.89Z" transform="translate(-399.9 -0.88)"/><path class="c" d="M895.76,249.88c0,1.32-.62,2.14-1.66,1.07-1.71-1.76-2.61.12-3.84.5-.27-.81-.72-1.63.15-2.36C892.22,249.2,894.16,248.43,895.76,249.88Z" transform="translate(-399.9 -0.88)"/><path class="d" d="M969.16,185.26c-.74-2.5-.25-2.91,3.86-3.21A4,4,0,0,1,969.16,185.26Z" transform="translate(-399.9 -0.88)"/><path class="c" d="M1026.94,162.85c.47-2.22,2.23-2.57,4.07-2.81C1030.58,162.32,1028.82,162.68,1026.94,162.85Z" transform="translate(-399.9 -0.88)"/><path class="c" d="M872.07,314.44c-.48.65-1,1.35-1.75.34C870.79,314,871.4,314.1,872.07,314.44Z" transform="translate(-399.9 -0.88)"/><path class="c" d="M1018.89,167.69A1.87,1.87,0,0,1,1021,166C1020.89,167.31,1020.32,168,1018.89,167.69Z" transform="translate(-399.9 -0.88)"/><path class="c" d="M1023.89,164.68A1.84,1.84,0,0,1,1026,163C1025.89,164.32,1025.28,165,1023.89,164.68Z" transform="translate(-399.9 -0.88)"/><path class="c" d="M906.12,207.88c.7-1.06,1.74-.89,2.77-.79C908.19,208.16,907.16,208,906.12,207.88Z" transform="translate(-399.9 -0.88)"/><path class="c" d="M728.89,154.15l1.1.85Z" transform="translate(-399.9 -0.88)"/><polygon class="e" points="370.1 62.09 369.96 62.25 370.15 62.14 370.1 62.09"/><path class="c" d="M700.94,135l-.79-1.1Z" transform="translate(-399.9 -0.88)"/><path class="d" d="M846.06,339.07c4.11,3.74,9.9,4.32,14.29,7.88,2.38,1.94,7.22,2.06,9.75.49,5.49-3.43,12.31-3.95,17.2-8.42,3.14,0,5.58-1.9,8.33-2.95,7.38-2.83,14.86-3.34,22.08.17,2.32,1.12,7-.67,6.67,2.29-.38,3.75-4.54-1.06-6.92,1.29,1.76,2,1.87,4.8,2.75,7.16,4.87,13-5.26,23-6.33,34.71-.12,1.28-1.28,1.79-2.25,2.48-4.69,3.35-6.32,7.8-7,13.67s2.48,9.09,5.55,12.74c1.25,1.5,2.5,3,1.49,4.87-1.48,2.78-1.74,5.28.48,7.75A1.16,1.16,0,0,1,912,425c-2.89,2.69-2.71,6.51-1.8,9.38,2.06,6.45-4.1,10.55-3.78,16.35.05.92-1.4,1.25-2.44,1.32s-2.58-.12-2.81,1.43c-.51,3.48-1.68,5.32-5.48,3.07a1.5,1.5,0,0,0-2.29,1.6c.81,2.73-2.85,5.93,1.12,8.37,1.23.76-.15,2.44-.52,3.67-16.64,1.78-33.32,1-50,.82-1.28-1.77-3.69-.27-5-1.66-.94-1-4.53-1.25-.84-3.92,2-1.48,1.32-5-.73-6.62s-4.34-1.27-6.05,1.68c-2.2,3.79-8.32,4.73-11.22,2.18-1-.85-2.28-1.75-1.94-3.26.39-1.8,2.06-1.23,3.31-1.36s2.52-.24,4.58-.43c-1.78-1.82-2-3.91-4.93-2.09-2.54,1.6-4.22.27-4.24-3.05A25.06,25.06,0,0,1,821.52,437c1.93-2.67,2.91-5.35,1.77-8.79-.84-2.54-2-5.35.06-8.06,1-1.31-.05-2.58-.65-3.7-1.68-3.12,0-5.14,2.27-6.76,4.74-3.34,7.93-11.13,5.66-16.58-1.13-2.71-1.34-5.56-2.23-8.25-1.12-3.36-1.75-5.68-5.79-6.07-2.09-.21-2.8-8.75-.52-11.25,5.89-6.47,1.92-13.21.25-19.38-1.08-4-2.93-7.36.46-10.59,3-2.88,6.46-1.32,10.08-.54C837.18,337.94,841.4,340.26,846.06,339.07Z" transform="translate(-399.9 -0.88)"/><path class="b" d="M844,471c16.67.19,33.35,1,50-.82,2.41,1.47,4.09,1.17,6.87-.42,4.16-2.4,9.34-3,14.41-2.64,6,.37,9.68-3.57,8.43-9.69A106.74,106.74,0,0,1,922,431.14c.29-6.28-2.77-12.17-1.38-18.65a6.9,6.9,0,0,0-3.48-7.17c-1.47-.86-2.55-3.22-2.89-5.06-1-5.57-2.09-11.31,1.79-16.34,1.06-1.38.91-2.82.88-4.26,0-2.08.22-4.18,1.68-5.59,2.67-2.58,5.27-5,4.45-9.24-.09-.43.52-1.18,1-1.49.67-.43,1.64.17,1.57.66-.89,6.24,5.94,7.68,7.55,12.32,1.48,4.26,2.09,9.34.85,12.95-1.43,4.16.56,6.19,1.79,9,2.89,6.66,7.37,12.72,8.29,20.09.47,3.72.56,7.31,2.2,10.88.66,1.46,1.46,4.34-1.44,6.38-1.87,1.32-1.6,4.73.3,6.73,2.67,2.81,3.77,6.5,2.61,9.58-2.56,6.82.41,12.62,2,18.74,1.49,5.69.68,11.13,0,16.95-1.27,10.11-6.44,20.77,1.14,30.75,1.68,2.22,4.15,3.74,4.34,7.4.18,3.44-.16,6.48-2.26,8.73-2.72,2.93-1.84,5.72-.08,8s1.25,4.17,1,6.37c-3.06,1-2.91,3.64-2.89,6.11,0,4.94.33,9.89-2,14.5-1.13.11-2.4,0-2.46,1.71a8.73,8.73,0,0,1-.45,2.28c-7.4-1-4.19,6.34-6.95,9.15s-.29,6.57,3.62,6.67c2.75.07,2.35,2.87,2,3.45-3.39,5.16-4.06,11.42-7.05,16.69-.29.52-1.06.77-1.6,1.15-.26-8.52.59-17.11-1.93-25.47-.29-1,.4-2.25.75-3.34,2.44-7.45,1-15,.78-22.53-.12-3.67-.88-7.35.05-11.09,1.27-5.13-.45-10.23-.91-15.3-1.19-13.23-2.95-26.42-5-39.56-.38-2.46,1.25-6.88-3.73-7.36,0-.3-.07-.59-.11-.89-.75-3.24,1.21-8.13-4.93-8.08l-.46-.05h-.48c-1.41-2.75-2.8-2.76-4.18,0a7.26,7.26,0,0,0-.93.06c-3.67-1.05-6.42,2.49-10,2h-3c-4.28-.24-8.08.51-10.1,4.91-1-.37-2-1.51-3,0-3.24-1.16-6.56.71-9.74-.12A11.54,11.54,0,0,0,869,485.86l-1,.06-5-.76L861,485c-5.52-2.62-11.29-1.07-17-1a5,5,0,0,1-.85-.2,3.35,3.35,0,0,0-3-2.78c-2-.29-3.79-1.67-3.59-3.38.25-2.08,1.06-4.57,4.16-4.73A4.33,4.33,0,0,0,844,471Zm47.3,2.05c-1.43.7-2.07,1.34-2.18,2.44-.35,3.32,2.61,2.34,4.14,3s2.42-1,2.24-1.86C895,474.37,891.23,476.34,891.32,473Z" transform="translate(-399.9 -0.88)"/><path class="b" d="M796.93,577.22c-1.62-3.45-4.54-5.11-6.69-7.48-3.78-4.16-3.08-9.58-3-14.56.06-2.19.28-4.1-.71-6.14a6,6,0,0,1,.18-6.21,8.88,8.88,0,0,0-.76-10.71,8.12,8.12,0,0,1-.67-9.71c5.43-9.45,4-19.2,2.25-28.94-2-11.28-3-22.38,1.81-33.19,1.11-2.47-.1-4.69-.62-6.76a13.66,13.66,0,0,1,1.77-11.3c1.54-2.5,2.71-5.47-.32-8.11a2.39,2.39,0,0,1-.79-2.74c3-6,1.25-13.25,4.72-19,3.05-5.07,3.07-11.3,7-16.1,1.27-1.56,3.51-5-.61-7,1.65-5.92,0-13,5.55-17.5,2.25-1.79,3.62-3.28,2.6-6.15a1.58,1.58,0,0,1,.11-1c1.08-3,0-8.08,3-8.69,2.12-.43,1.27,5.11,2.62,7.52,4.33,7.77,3.89,17,8.11,24.86,2.52,4.69,1.46,10.47-1,14.84-3.08,5.58-4.71,11.31-4,17.32.61,5.48-.87,10.53-1.72,15.64-1.33,8-.46,15.94-.76,23.9-.2,5.24,4.31,5.49,7.64,6.15,4.32.85,7.53,1.66,6.61,7.3-.64,3.91,3.65,1.39,5.93,4.15-6.14-1-11.48-.17-16-3.45-1.41-1-3.73-2.39-4.22-1.59-1.57,2.57-7.28,1.16-5.9,6.37,1,3.88-2,6.85-2.76,10.29-1.12,5.15-1,10.56-2.15,15.7a159.54,159.54,0,0,0-2.71,20.54c-.53,6.22-2.76,12.27-2,19.19C800.56,555,802.18,566.16,796.93,577.22Z" transform="translate(-399.9 -0.88)"/><path class="d" d="M865.3,559.9c2.63,1.69,5.55,2.39,8.07,3.79,1.19.66,2.6,1.3,2.47,2.83-.41,4.61,2.54,7.13,7.15,10.12-4.14-.28-6.84-.39-8.58,2.32a1.88,1.88,0,0,1-3,.37c-2.09-2.18-2.94-1.05-3.76,1.11-.46,1.22-2.11,2-2.78,1.19-1.85-2.34-3.69-2.41-6.61-2.68-2.68-.25-5.29-2.64-8.59-1.06a1.61,1.61,0,0,1-2.32-1.18c-.22-1.39.86-1.58,1.9-1.66,4.66-.37,6.75-3.18,6.77-7.57,0-2.28.86-4.44,2.77-4.64,1.73-.18,3.59,1.86,4,3.68.5,2.2.84,4.17,3.56,3.34,3.14-1,1.23-3.21.78-4.92S865.91,561.58,865.3,559.9Z" transform="translate(-399.9 -0.88)"/><path class="b" d="M799,609.47c-3-6.65-9.31-12.19-6.9-20.64,2,.94,4.12,4.68,5.75-1,2.93,5.11-1,11,3.13,15.18,0,1,0,2,0,3C798.78,606.29,799.13,608,799,609.47Z" transform="translate(-399.9 -0.88)"/><path class="d" d="M833.83,561.51a8.08,8.08,0,0,0-1.63-8.57c-.47-.51-1-.85-.78-1.56.48-1.25,1.27-3,2.73-1.7,1.72,1.55,5.25-3.84,4.93,1C838.82,554.5,837.92,559.07,833.83,561.51Z" transform="translate(-399.9 -0.88)"/><path class="d" d="M850.24,571.64c-.62-.2-1-.2-1.21-.4-2.19-2.53.78-5,.15-7.57-.28-1.15.66-2.19,2-2.44a2.07,2.07,0,0,1,2.15.92c.85,1.18,1.1,2.88.32,3.75C852.1,567.62,851.39,569.81,850.24,571.64Z" transform="translate(-399.9 -0.88)"/><path class="d" d="M883.66,570.94c-3.21-1.26-3.61-4.25-5.3-6.08a2.2,2.2,0,0,1,1.09-3.32c1.61-.68,2.7.72,3,1.83A62.1,62.1,0,0,1,883.66,570.94Z" transform="translate(-399.9 -0.88)"/><path class="d" d="M857.59,551.17c1.22.13,2.06,1.52,1.77,2-1.13,1.84-2.45,3.53-3.05,5.69-.09.3-2.35.46-2.62-.44-.64-2.12,1.79-3.3,2.16-5.22C856,552.23,856.23,551.18,857.59,551.17Z" transform="translate(-399.9 -0.88)"/><path class="d" d="M877.06,559.8c-1-.38-2.6-.46-2.59-2.18,0-.8.85-1.38,1.75-1.45a2.21,2.21,0,0,1,2.62,2.25C878.9,559.35,878.23,559.88,877.06,559.8Z" transform="translate(-399.9 -0.88)"/><path class="d" d="M879.61,647.24c-2.67-1.58-2.89-3-1.77-5.24A6.83,6.83,0,0,1,879.61,647.24Z" transform="translate(-399.9 -0.88)"/><path class="c" d="M886.75,499.12c-1.86,4.16-6.55,5.93-5.31,10.72.11.43-.53,1.23-1,1.6-1,.82-9.23-2.9-9.32-4.27a20.54,20.54,0,0,1,.12-5.92c.31-1.28.78-5.26,3.27-.93.61,1.06,2.68,1.12,3.13.45C880.13,497.1,883.32,499.48,886.75,499.12Z" transform="translate(-399.9 -0.88)"/><path class="c" d="M891.89,498c-2.12-.19-4.33-.64-3.29-2.76,1.12-2.3-1.67-6.18,2.5-7,2.58-.48,9.15,4.25,8.85,5.95C899,499.6,893.83,495.58,891.89,498Z" transform="translate(-399.9 -0.88)"/><path class="c" d="M869,485.86a11.54,11.54,0,0,1,10.15-2.11c3.18.83,6.5-1,9.74.12,0,.88-.26,1.92-1.14,1.93C881.48,485.9,875.23,485.86,869,485.86Z" transform="translate(-399.9 -0.88)"/><path class="c" d="M844,484c5.68,0,11.45-1.59,17,1-5,1.15-10.11,1.07-15.21.92C844.59,485.89,844.14,485.05,844,484Z" transform="translate(-399.9 -0.88)"/><path class="c" d="M921,476.94c6.14-.05,4.18,4.84,4.93,8.08-1.74-.14-3.55.36-5.6-.64C921.84,482,924.45,479.6,921,476.94Z" transform="translate(-399.9 -0.88)"/><path class="c" d="M891.89,483.9c2-4.4,5.82-5.15,10.1-4.91C899.33,482.07,895.66,483.1,891.89,483.9Z" transform="translate(-399.9 -0.88)"/><path class="c" d="M905,479c3.57.49,6.32-3.05,10-2C912.23,480.51,908.8,480.68,905,479Z" transform="translate(-399.9 -0.88)"/><path class="c" d="M862.93,485.16l5,.76C865.73,489.25,864.12,488.58,862.93,485.16Z" transform="translate(-399.9 -0.88)"/><path class="c" d="M915.92,476.93c1.38-2.79,2.77-2.78,4.18,0Z" transform="translate(-399.9 -0.88)"/><path class="c" d="M832,789c0,2.67,0,5.34,0,8C828.79,794.33,828.76,791.66,832,789Z" transform="translate(-399.9 -0.88)"/><path class="c" d="M799,609.47c.11-1.46-.24-3.18,1.93-3.49l-.06,5.62C799.66,611.42,799.28,610.5,799,609.47Z" transform="translate(-399.9 -0.88)"/><path class="c" d="M820.93,700.06c-.62-.14-1.36-.17-1.44-1,0-.18.38-.58.56-.56.84.08.87.82,1,1.45Z" transform="translate(-399.9 -0.88)"/><path class="b" d="M951.35,585.53c4,1.25,6.79-.17,9.15-3.16.75-.94,1.43-2.42,3.12-1.78.38.15.62.69.92,1-2.61,1.1.25,3.8-1.49,5.12S952.94,587.38,951.35,585.53Z" transform="translate(-399.9 -0.88)"/><path class="b" d="M959.46,589.54c-.11.1-.25.31-.33.29a4.91,4.91,0,0,1-.78-.35c.11-.11.25-.33.33-.3A4.2,4.2,0,0,1,959.46,589.54Z" transform="translate(-399.9 -0.88)"/><path class="b" d="M773.32,580.63c4.31,1.44,6.81,6.7,13.31,4.41-3.26,4-5.93,2.18-8.75,2.23C772.28,587.37,775.06,582.72,773.32,580.63Z" transform="translate(-399.9 -0.88)"/><polygon class="b" points="378.59 588.87 378.44 588.53 378.81 588.56 378.59 588.87"/><path class="b" d="M848.51,250.46c-3.53-1.55-7.34-2.7-9-6.7-.15-1.88-.32-3.72,2.2-4.29,1.23-.27,1.41-1.23,1.09-2.34-.77-4.86,3.39-7.47,5.1-11.2l2.36,2c-.76,2.21-3.79,3.34-3,6.29-1.07,1.06-.73,2.06.12,3,1.43,3.51,6.39,3.74,7.22,7.8l-.63,3.25c-1.71-.21-2.48.84-3,2.23Z" transform="translate(-399.9 -0.88)"/><path class="e" d="M878.38,258.29c-1.61-.82-1.66-3.64-4.2-3.26l2.19-19.42C881.14,243,877.06,250.82,878.38,258.29Z" transform="translate(-399.9 -0.88)"/><path class="e" d="M853.89,248.27l.63-3.25c7,1.2.71,4.73,1.23,7.06C852.94,251.88,854.7,249.45,853.89,248.27Z" transform="translate(-399.9 -0.88)"/><path class="c" d="M853.89,248.27c.81,1.18-.95,3.61,1.86,3.81l.76,1.93-1.65.63-4-4.15C851.41,249.11,852.18,248.06,853.89,248.27Z" transform="translate(-399.9 -0.88)"/><path class="e" d="M854.86,254.64l1.65-.63c1.83.1,2.39,1.34,2.6,2.9l-.28.23C857,257.18,855.49,256.58,854.86,254.64Z" transform="translate(-399.9 -0.88)"/><path class="e" d="M873.93,257.05c1.24,2,.12,2.74-1.7,3.06C871.85,258.56,872.66,257.68,873.93,257.05Z" transform="translate(-399.9 -0.88)"/><path class="e" d="M847.3,237.22c-.85-1-1.19-2-.12-3C848.2,235.16,848,236.18,847.3,237.22Z" transform="translate(-399.9 -0.88)"/><path class="e" d="M859.11,256.91c.26.34.53.67.76,1a5,5,0,0,1-.55.44l-.48-1.24Z" transform="translate(-399.9 -0.88)"/><path class="a" d="M847.85,225.93c-1.71,3.73-5.87,6.34-5.1,11.2a12.73,12.73,0,0,1-10.91-5.84c-2.69-4-1.79-6.89,3-8,3-.73,6.24-.69,9.33-1.21C847.47,221.49,848.21,223.12,847.85,225.93Z" transform="translate(-399.9 -0.88)"/><path class="b" d="M832.88,252.22c0,1.73-1.29,1.62-2.43,1.61-1.5,0-2.57-.56-2.36-2.33.14-1.28.9-2.46,2.1-2.21S833,250.31,832.88,252.22Z" transform="translate(-399.9 -0.88)"/><path class="b" d="M871.3,289.47c.58-1.14,1.17-2.27,1.76-3.4,1-.78.91-1.94,1-3a2.54,2.54,0,0,1,2.94-.11c.05.33.1.66.16,1,.17,1.85.33,3.7.5,5.54A14,14,0,0,1,871.3,289.47Z" transform="translate(-399.9 -0.88)"/><path class="c" d="M877,282.94a2.54,2.54,0,0,0-2.94.11c0-2.35-.53-4.85,2.18-6.9C877.47,278.53,876.78,280.81,877,282.94Z" transform="translate(-399.9 -0.88)"/><path class="c" d="M880.53,296.19c0,1.64.05,3.31-2.32,3.29-.62-2-2.49-2.94-4.38-4.61C876.9,293.41,878.52,295.79,880.53,296.19Z" transform="translate(-399.9 -0.88)"/><path class="c" d="M891.32,473c-.09,3.33,3.71,1.36,4.2,3.61.18.83-.75,2.53-2.24,1.86s-4.49.29-4.14-3C889.25,474.35,889.89,473.71,891.32,473Z" transform="translate(-399.9 -0.88)"/></svg>